<?xml version="1.0" encoding="UTF-8" standalone="no"?>
<!-- Created with Inkscape (http://www.inkscape.org/) -->

<svg
   width="184.84616mm"
   height="252.18762mm"
   viewBox="0 0 184.84616 252.18762"
   version="1.1"
   id="svg1"
   xmlns="http://www.w3.org/2000/svg"
   xmlns:svg="http://www.w3.org/2000/svg">
  <defs
     id="defs1" />
  <g
     id="layer1"
     transform="translate(-2.4282841,-32.574594)">
    <path
       d="m 168.57816,166.53893 c 0.48242,0.12927 0.96482,0.25853 1.46186,0.39171 -0.54618,2.76203 -0.54618,2.76203 -1.10342,5.57987 0.50507,-0.31709 1.01012,-0.63418 1.5305,-0.96089 0.8609,-0.54046 0.8609,-0.54046 1.7132,-0.91189 0.48242,0.12926 0.96482,0.25852 1.46186,0.39171 -0.63049,1.75559 -1.51904,2.16556 -3.16425,2.94673 -0.61652,0.28545 -0.61652,0.28545 -1.24549,0.57668 -1.53539,1.25387 -1.72235,2.63794 -2.05846,4.53596 0.20286,-0.12363 0.40581,-0.24724 0.61484,-0.3746 0.92024,-0.55698 1.84458,-1.10673 2.7692,-1.6564 0.47889,-0.29205 0.47889,-0.29205 0.96749,-0.58997 0.46333,-0.27348 0.46333,-0.27348 0.93602,-0.55248 0.4253,-0.25526 0.4253,-0.25526 0.85921,-0.5157 0.80404,-0.32389 0.80404,-0.32389 2.26587,0.0678 -0.60745,1.55427 -1.23327,2.07496 -2.71244,2.81382 -0.36707,0.194 -0.73412,0.38798 -1.1123,0.58788 -0.77078,0.39627 -1.54456,0.78678 -2.3213,1.17125 -2.04858,1.09626 -3.21322,1.86061 -4.03428,4.09226 -0.16678,0.59691 -0.32628,1.19646 -0.45836,1.80202 0.40017,0.17989 0.40017,0.17989 0.80841,0.36347 0.92099,0.4916 0.92099,0.4916 1.8215,1.51632 1.48456,0.27474 2.65013,0.0687 4.04633,-0.48263 0.72491,-0.87322 0.72491,-0.87322 1.26541,-1.97596 0.3239,-0.59145 0.3239,-0.59145 0.65451,-1.19479 0.21813,-0.41393 0.43638,-0.82779 0.66124,-1.2542 0.43468,-0.81978 0.87424,-1.63698 1.31928,-2.45116 0.19168,-0.3637 0.38329,-0.72747 0.58084,-1.10218 0.62305,-0.83822 0.62305,-0.83822 1.52718,-1.12908 0.24869,-0.016 0.49737,-0.0319 0.75359,-0.0484 0.26756,0.46341 0.26756,0.46341 0.0957,1.13343 -0.95722,2.64634 -2.3534,4.90864 -3.90771,7.24598 0.70749,-0.19822 0.70749,-0.19822 1.4293,-0.40043 1.42928,-0.40041 1.42928,-0.40041 2.25156,-0.18008 1.03174,-1.92101 2.06354,-3.84199 3.12658,-5.82118 0.51472,0.009 1.02945,0.0174 1.55978,0.0263 0.0882,0.15296 0.17657,0.30583 0.26752,0.46338 -0.55087,1.46424 -1.12739,2.83295 -1.90602,4.1897 0.28617,-0.0976 0.57234,-0.19502 0.86717,-0.29552 0.37813,-0.12035 0.75625,-0.2407 1.14584,-0.36469 0.37366,-0.12255 0.74731,-0.24511 1.13229,-0.37135 1.27243,-0.21108 1.75695,-0.008 2.82623,0.67323 -0.26035,0.64632 -0.26035,0.64632 -0.75713,1.36397 -0.87483,0.34702 -0.87483,0.34702 -1.89103,0.57048 -0.3354,0.0778 -0.67079,0.15554 -1.01638,0.23564 -0.87136,0.13985 -0.87136,0.13985 -1.60229,-0.056 -0.0646,0.24125 -0.12926,0.48242 -0.19585,0.73093 1.1414,0.56437 2.28278,1.12871 3.45877,1.71019 -0.013,0.77208 -0.013,0.77208 -0.0263,1.55977 -1.99178,0.0137 -3.0887,-0.75576 -4.71608,-1.81451 -1.46669,-0.75764 -2.45597,-0.70875 -4.04156,-0.31177 -0.31028,0.10274 -0.62054,0.20536 -0.94022,0.31115 0.20378,0.11758 0.40755,0.23514 0.61744,0.35632 0.91884,0.53434 1.83179,1.07805 2.74506,1.62183 0.48124,0.27734 0.48124,0.27734 0.97213,0.56037 0.45527,0.27299 0.45527,0.27299 0.91924,0.55235 0.28199,0.16536 0.5634,0.33165 0.85396,0.50194 0.61402,0.55818 0.61402,0.55818 0.69265,1.4043 -0.0346,0.23548 -0.0693,0.47098 -0.10483,0.71361 -1.3996,0.0997 -2.16564,-0.27943 -3.35458,-0.99691 -0.33918,-0.19963 -0.67779,-0.4002 -1.02728,-0.60585 -0.70812,-0.426 -1.41605,-0.85235 -2.12379,-1.279 -0.33957,-0.19989 -0.67917,-0.39969 -1.02851,-0.60656 -0.30765,-0.18521 -0.615,-0.37088 -0.93187,-0.56186 -1.33511,-0.61772 -2.4803,-0.56244 -3.92743,-0.4954 -1.52994,0.82598 -1.71875,2.0381 -2.23201,3.64179 -0.0796,0.27611 -0.15975,0.55202 -0.24104,0.83664 0.38421,0.28474 0.38421,0.28474 0.77618,0.57518 0.8553,0.64534 0.8553,0.64534 1.48829,1.20667 2.70033,0.75407 5.48462,0.65031 8.25911,0.58348 1.29391,0.0353 2.33223,0.23259 3.55984,0.6249 -0.28213,0.57074 -0.56436,1.14139 -0.85508,1.72939 -0.22273,-0.002 -0.44551,-0.004 -0.67503,-0.008 -1.00422,-0.01 -2.00847,-0.018 -3.01273,-0.0261 -0.35066,-0.003 -0.70131,-0.008 -1.06259,-0.0115 -0.5008,-0.003 -0.5008,-0.003 -1.01175,-0.008 -0.4635,-0.004 -0.4635,-0.004 -0.93635,-0.009 -0.71792,-0.0307 -0.71792,-0.0307 -1.19835,0.29485 1.52122,1.75342 1.52122,1.75342 3.67777,2.39466 0.80706,-2.1e-4 1.61437,-0.0183 2.42051,-0.0568 1.08752,-0.0135 1.91125,0.14275 2.94035,0.47575 -0.009,0.51472 -0.0173,1.02943 -0.0263,1.55977 -1.33529,0.15923 -2.67057,0.31851 -4.04632,0.48258 0.22055,0.21512 0.44114,0.43027 0.66841,0.65189 0.28403,0.28361 0.56803,0.56726 0.86065,0.85947 0.28378,0.28061 0.56765,0.5611 0.86008,0.85015 0.67793,0.81051 0.67793,0.81051 0.74961,2.00482 -0.18521,0.20891 -0.37043,0.41781 -0.56128,0.63302 -1.31735,-0.58059 -2.22483,-1.24322 -3.2373,-2.26275 -0.24425,-0.24366 -0.48848,-0.48737 -0.7401,-0.73842 -0.18203,-0.1856 -0.36405,-0.3712 -0.5516,-0.56245 -0.0113,0.27061 -0.0229,0.5412 -0.0346,0.82004 -0.018,0.35163 -0.036,0.7033 -0.0545,1.06563 -0.0165,0.35006 -0.0331,0.70005 -0.0502,1.06068 -0.10912,0.9041 -0.10912,0.9041 -0.67043,1.53712 -0.4824,-0.12927 -0.96482,-0.25854 -1.46186,-0.3917 0.0134,-0.45893 0.0267,-0.91785 0.0406,-1.39068 0.006,-0.60878 0.01,-1.21758 0.0135,-1.82635 0.01,-0.30172 0.0208,-0.60341 0.0316,-0.91421 0.005,-1.7413 0.005,-1.7413 -0.74521,-3.26825 -0.65209,-0.6673 -0.65209,-0.6673 -1.66955,-1.45033 -0.28715,2.86955 -0.28715,2.86955 -0.29173,5.74839 -0.009,1.25615 -0.20863,1.89616 -0.86416,2.95102 -0.67512,-0.37483 -0.67512,-0.37483 -1.3639,-0.75721 0.011,-0.29544 0.0209,-0.59089 0.0317,-0.89531 0.0415,-1.34706 0.0667,-2.69393 0.0915,-4.04138 0.0168,-0.46484 0.0335,-0.92969 0.0508,-1.40861 0.0867,-2.89344 0.0867,-2.89344 -1.13143,-5.42511 -1.16465,-0.96407 -1.29124,-1.0594 -2.6831,-0.95611 -0.28309,0.0615 -0.56615,0.12298 -0.85782,0.18633 -0.79987,0.1529 -0.79987,0.1529 -1.89628,-0.14089 -0.60725,1.83981 -0.978,3.40138 -0.28757,5.25969 0.6554,1.17691 1.35513,2.30245 2.09746,3.4265 0.49152,0.76828 0.97935,1.53892 1.46289,2.31224 0.21954,0.335 0.43909,0.66999 0.66527,1.01513 0.43344,0.90881 0.43344,0.90881 0.0417,2.37066 -2.07798,-0.62114 -2.74295,-2.37121 -3.71021,-4.15224 -0.17085,-0.30557 -0.34169,-0.61114 -0.51771,-0.92595 -0.41992,-0.75252 -0.83536,-1.50721 -1.24696,-2.26432 -0.58034,1.2588 -0.95341,2.24892 -0.97926,3.65464 0.54849,1.20433 1.13951,2.25182 1.88077,3.34118 0.3822,0.56738 0.72486,1.16088 1.06216,1.75606 -0.12928,0.48241 -0.25854,0.96482 -0.39171,1.46186 -1.94257,-0.645 -2.43616,-1.9062 -3.33462,-3.63541 -0.60532,1.77672 -1.21066,3.55344 -1.83434,5.384 -0.48241,-0.12927 -0.96481,-0.25851 -1.46184,-0.3917 0.54619,-2.76203 0.54619,-2.76203 1.10342,-5.57987 -0.50507,0.31709 -1.01013,0.63417 -1.53051,0.96087 -0.86088,0.54049 -0.86088,0.54049 -1.71321,0.91189 -0.48242,-0.12926 -0.96482,-0.25852 -1.46185,-0.3917 0.63051,-1.75558 1.51902,-2.16555 3.16427,-2.94675 0.41099,-0.19029 0.822,-0.38059 1.24546,-0.57666 1.53539,-1.25385 1.72235,-2.63793 2.05849,-4.53596 -0.20287,0.12365 -0.40581,0.24725 -0.61488,0.3746 -0.92023,0.55696 -1.84457,1.10674 -2.76917,1.65641 -0.31928,0.19467 -0.63854,0.38937 -0.96749,0.58997 -0.30889,0.18232 -0.61778,0.36462 -0.93602,0.55247 -0.28356,0.17018 -0.56709,0.34036 -0.85924,0.51568 -0.80402,0.32391 -0.80402,0.32391 -2.26588,-0.0678 0.60747,-1.55426 1.2333,-2.07497 2.71249,-2.8138 0.55057,-0.29102 0.55057,-0.29102 1.11229,-0.58789 0.77078,-0.39628 1.54455,-0.78678 2.32129,-1.17127 2.0486,-1.09624 3.21322,-1.86059 4.03428,-4.09222 0.16678,-0.59694 0.32628,-1.19645 0.45837,-1.80203 -0.40016,-0.17988 -0.40016,-0.17988 -0.80842,-0.36347 -0.92096,-0.49158 -0.92096,-0.49158 -1.8215,-1.51628 -1.48458,-0.27476 -2.65013,-0.0687 -4.04633,0.48259 -0.72491,0.87322 -0.72491,0.87322 -1.26541,1.97596 -0.21612,0.39418 -0.43187,0.78862 -0.65451,1.19481 -0.21812,0.41392 -0.4364,0.82778 -0.66124,1.25421 -0.43467,0.81975 -0.87424,1.63696 -1.31927,2.45114 -0.19159,0.36376 -0.38328,0.72747 -0.58083,1.10217 -0.62307,0.83823 -0.62307,0.83823 -1.52718,1.12911 -0.2487,0.016 -0.49738,0.0319 -0.75361,0.0483 -0.13244,-0.22937 -0.13244,-0.22937 -0.26754,-0.46338 0.9336,-2.88861 2.47969,-5.35613 4.0796,-7.916 -0.70751,0.1982 -0.70751,0.1982 -1.42929,0.40042 -1.42929,0.40043 -1.42929,0.40043 -2.25157,0.18011 -0.10164,0.21917 -0.20327,0.43835 -0.3081,0.66411 -0.93745,1.96583 -1.96629,3.6891 -3.28197,5.42454 -0.45019,-0.2497 -0.90015,-0.49977 -1.36393,-0.75712 0.47605,-1.29432 0.95213,-2.58864 1.44262,-3.92217 -0.58784,0.17372 -1.17565,0.34746 -1.78128,0.52644 -1.24319,0.3674 -1.76992,0.51184 -2.98703,0.0183 -0.36629,-0.22451 -0.36629,-0.22451 -0.7398,-0.45383 0.26037,-0.64632 0.26037,-0.64632 0.7572,-1.36389 0.87484,-0.347 0.87484,-0.347 1.89102,-0.57047 0.33543,-0.0778 0.67082,-0.15553 1.01639,-0.23565 0.87138,-0.13988 0.87138,-0.13988 1.60231,0.056 0.0646,-0.24123 0.12925,-0.48241 0.19584,-0.73091 -1.14141,-0.56436 -2.28279,-1.12872 -3.45878,-1.71018 0.009,-0.51473 0.0174,-1.02947 0.0263,-1.55977 1.99178,-0.0137 3.08874,0.75565 4.71608,1.8145 1.69034,0.87316 3.39442,0.60123 5.24932,0.464 0.0646,-0.24123 0.12926,-0.48242 0.19585,-0.73092 -0.37634,-0.13311 -0.75267,-0.26636 -1.14045,-0.4034 -2.13411,-0.87428 -4.27175,-2.00191 -6.04488,-3.47985 -0.11195,-0.86694 -0.11195,-0.86694 0.0263,-1.55978 1.37406,-0.0938 2.10432,0.24991 3.26186,0.97184 0.32073,0.19531 0.64179,0.39003 0.97236,0.59102 0.66844,0.41487 1.3364,0.83048 2.00388,1.24686 2.16895,1.31627 3.62087,1.84315 6.17856,1.7413 1.67813,-0.93669 1.93914,-2.7103 2.4502,-4.48456 -0.25598,-0.18998 -0.51226,-0.37963 -0.77617,-0.57516 -0.8553,-0.64535 -0.8553,-0.64535 -1.48828,-1.20669 -2.4651,-0.5258 -4.87617,-0.57591 -7.3863,-0.55818 -1.576,-8.9e-4 -2.93111,-0.16926 -4.43267,-0.65019 0.28212,-0.57073 0.56436,-1.14139 0.85509,-1.7294 3.86044,0.0649 3.86044,0.0649 7.79887,0.13122 -1.21682,-1.88963 -1.21682,-1.88963 -2.43407,-2.61072 -0.98975,-0.0536 -0.98975,-0.0536 -2.08228,0.006 -1.58884,0.0351 -2.90945,-0.033 -4.42436,-0.57346 0.12926,-0.48241 0.25852,-0.96483 0.3917,-1.46185 1.18239,-0.0709 2.36475,-0.14194 3.58294,-0.21506 -0.635,-1.09986 -1.05596,-1.71009 -1.93603,-2.55071 -0.34094,-0.3256 -0.68186,-0.65127 -1.0331,-0.98678 0.16158,-0.60303 0.32314,-1.20604 0.48963,-1.82731 1.31733,0.58058 2.2248,1.24321 3.23728,2.26273 0.24425,0.24369 0.48847,0.48738 0.7401,0.73844 0.18203,0.18561 0.36406,0.37121 0.55158,0.56247 0.0199,-0.43323 0.0199,-0.43323 0.0402,-0.87518 0.10065,-1.2586 0.41953,-2.39775 0.76945,-3.60831 0.48242,0.12927 0.96482,0.25853 1.46187,0.39171 -0.0134,0.45891 -0.0268,0.91784 -0.0406,1.39067 -0.006,0.60876 -0.01,1.21756 -0.0135,1.82635 -0.0156,0.45253 -0.0156,0.45253 -0.0315,0.91421 -0.005,1.7413 -0.005,1.7413 0.74518,3.26826 0.6521,0.66729 0.6521,0.66729 1.66956,1.45033 0.0209,-0.25543 0.042,-0.51083 0.0636,-0.77402 0.20964,-2.55259 0.4193,-5.10524 0.62896,-7.65784 0.51471,0.009 1.02946,0.0173 1.55978,0.0262 0.2047,1.71063 0.3354,3.34714 0.26354,5.0694 -0.0119,0.31367 -0.0238,0.62732 -0.0359,0.95051 -0.0275,0.64195 -0.0617,1.28364 -0.10263,1.92489 -0.0637,2.07854 0.25268,3.21532 1.62176,4.79575 0.77023,0.542 1.23466,0.52563 2.16133,0.44929 0.28309,-0.0615 0.56616,-0.12297 0.85782,-0.18632 0.79988,-0.1529 0.79988,-0.1529 1.89627,0.14089 0.60726,-1.83982 0.97801,-3.40136 0.28758,-5.25967 -0.65539,-1.17692 -1.35512,-2.30248 -2.09746,-3.42653 -0.49152,-0.76829 -0.97935,-1.5389 -1.46288,-2.31225 -0.21954,-0.33498 -0.43907,-0.66999 -0.66527,-1.01511 -0.43344,-0.90882 -0.43344,-0.90882 -0.0417,-2.37067 2.07799,0.62114 2.74295,2.37122 3.71023,4.15224 0.17083,0.30558 0.34168,0.61113 0.51769,0.92595 0.41997,0.75252 0.83537,1.50721 1.24698,2.26431 0.58034,-1.25877 0.9534,-2.24891 0.97925,-3.65461 -0.5485,-1.20435 -1.13951,-2.25184 -1.88078,-3.34121 -0.38219,-0.56737 -0.72485,-1.16087 -1.06212,-1.75604 0.12927,-0.48241 0.25853,-0.96482 0.39171,-1.46186 1.94259,0.64487 2.43612,1.90619 3.33459,3.63542 0.60532,-1.77674 1.21067,-3.55346 1.83433,-5.38402 z m -7.60489,21.07266 c -1.13704,0.99925 -1.51156,1.60806 -1.7925,3.0695 -0.0285,1.38385 0.42644,2.0525 1.32213,3.07169 0.96821,0.53271 1.81789,0.76741 2.92369,0.78339 1.32777,-0.52769 2.05696,-0.99649 2.92109,-2.13059 0.34514,-1.28811 0.12614,-2.15825 -0.2579,-3.42302 -1.48066,-1.68482 -3.05396,-2.0687 -5.11647,-1.37096 z"
       fill="#FEFEFE"
       id="path1-6"
       style="fill:#41fefe;fill-opacity:1;stroke-width:0.378354" />
    <path
       d="m 83.528308,83.706372 c 0.49391,-0.49391 0.98783,-0.98783 1.4967,-1.4967 2.96349,2.59304 2.96349,2.59304 5.986844,5.23849 -0.0309,-0.83349 -0.0618,-1.66696 -0.0935,-2.52571 -0.0526,-1.4207 -0.0526,-1.4207 0.0936,-2.71278 0.49391,-0.49392 0.98783,-0.98783 1.4967,-1.49671 1.68551,1.99137 1.56092,3.35417 1.3564,5.8933 -0.0854,0.94635 -0.0854,0.94635 -0.17247,1.9118 0.44498,2.73655 1.99063,3.93091 4.05455,5.66529 -0.008,-0.33222 -0.0157,-0.66443 -0.0237,-1.00671 -0.0311,-1.50408 -0.0506,-3.00812 -0.0698,-4.51242 -0.0188,-0.78428 -0.0188,-0.78428 -0.038,-1.5844 -0.007,-0.75244 -0.007,-0.75244 -0.0146,-1.52011 -0.0117,-0.69365 -0.0117,-0.69365 -0.0237,-1.40132 0.1699,-1.20037 0.1699,-1.20037 1.66662,-2.69708 1.457788,1.82268 1.650768,2.94482 1.511338,5.25311 -0.0217,0.58025 -0.0434,1.1605 -0.0658,1.75834 -0.0591,1.21072 -0.12714,2.42102 -0.20465,3.63067 -0.10476,3.247923 0.007,5.193063 2.13542,7.748123 0.60585,0.619985 1.2208,1.232095 1.86207,1.815395 0.49777,-0.35889 0.49777,-0.35889 1.00558,-0.725 1.23948,-0.77174 1.23948,-0.77174 3.11035,-1.145915 1.37094,-1.60598 1.93648,-3.16182 2.24507,-5.238483 -0.55069,-1.48868 -0.55069,-1.48868 -1.5084,-2.91449 -0.48982,-0.80598 -0.48982,-0.80598 -0.98953,-1.62825 -0.3487,-0.55376 -0.69746,-1.10747 -1.05676,-1.67796 -0.689,-1.09972 -1.37143,-2.20359 -2.04628,-3.31206 -0.30655,-0.48644 -0.61305,-0.973 -0.92886,-1.47422 -0.57955,-1.34087 -0.57955,-1.34087 -0.29965,-2.63935 0.15457,-0.3124 0.30919,-0.62475 0.46847,-0.94659 0.74835,0 0.74835,0 1.4397,0.67674 2.53592,3.01001 4.29972,6.28312 6.04384,9.80024 0.25467,-0.99555 0.25467,-0.99555 0.51449,-2.01121 0.51449,-2.01121 0.51449,-2.01121 1.35639,-2.8531 -1.60522,-2.59304 -3.21043,-5.18609 -4.86429,-7.85772 0.37046,-0.61738 0.74086,-1.2348 1.12252,-1.87089 0.24692,-1e-5 0.49391,1e-5 0.74836,1e-5 1.38828,1.69118 2.64294,3.3466 3.74179,5.23847 0.082,-0.41481 0.16398,-0.82962 0.24846,-1.25699 0.11865,-0.54216 0.23731,-1.08431 0.35957,-1.64288 0.11286,-0.53829 0.22573,-1.07658 0.34201,-1.63118 0.63414,-1.68877 1.21879,-2.13371 2.79178,-2.95244 0.60074,0.76733 0.60074,0.76733 1.12252,1.87089 -0.19147,1.30231 -0.19147,1.30231 -0.63143,2.6894 -0.14035,0.46063 -0.28072,0.92125 -0.42532,1.39584 -0.43996,1.15325 -0.43996,1.15325 -1.1883,1.90159 0.24695,0.24695 0.49391,0.49392 0.74836,0.74836 1.48173,-0.98783 2.96349,-1.97565 4.49011,-2.99343 0.9261,0.55566 0.9261,0.55566 1.87089,1.12255 -1.37621,2.42209 -3.07525,3.21271 -5.49572,4.44335 -1.94334,1.24667 -2.57588,2.47914 -3.20392,4.67721 -0.0926,0.44761 -0.18521,0.89522 -0.28062,1.35638 0.28498,-0.16446 0.56983,-0.32913 0.86338,-0.49868 1.28997,-0.73879 2.58671,-1.46481 3.88399,-2.1907 0.6725,-0.38889 0.6725,-0.38889 1.35859,-0.78564 0.64936,-0.35994 0.64936,-0.35994 1.3118,-0.72715 0.39783,-0.22531 0.79557,-0.45068 1.20541,-0.68286 1.10543,-0.35345 1.10543,-0.35345 2.18532,0.14306 0.26097,0.20666 0.52209,0.41318 0.79098,0.62608 -0.85806,1.76494 -1.8529,2.42767 -3.55315,3.3662 -0.47925,0.27079 -0.95842,0.54166 -1.45213,0.82071 -1.01118,0.55982 -2.02263,1.11913 -3.03436,1.67795 -0.47972,0.27128 -0.95936,0.54263 -1.45357,0.82217 -0.43967,0.2428 -0.87927,0.48565 -1.3322,0.73584 -1.68185,1.185153 -2.41573,2.610893 -3.34649,4.410553 -0.0694,2.430705 1.26668,3.507045 2.85017,5.250165 0.27845,0.28977 0.55831,0.57811 0.84479,0.87703 0.61352,-0.26627 0.61352,-0.26627 1.23947,-0.53788 1.37978,-0.58465 1.37978,-0.58465 2.50229,-0.95882 2.80167,-2.74338 4.62308,-6.188315 6.48234,-9.595608 0.94764,-1.5425 1.91264,-2.6622 3.24628,-3.87479 0.49394,0.74087 0.98783,1.48177 1.49671,2.24509 -0.15868,0.26813 -0.31736,0.53627 -0.48088,0.81247 -0.71448,1.20931 -1.42645,2.42008 -2.13836,3.630873 -0.24982,0.42207 -0.4997,0.84408 -0.75711,1.27893 -0.35446,0.60421 -0.35446,0.60421 -0.71622,1.22047 -0.32913,0.55852 -0.32913,0.55852 -0.66503,1.128175 -0.53919,0.84814 -0.53919,0.84814 -0.48088,1.65768 3.18757,-0.61637 3.18757,-0.61637 5.47234,-2.780015 0.5641,-0.97768 1.10677,-1.96816 1.62387,-2.9715 0.74406,-1.326753 1.50942,-2.215123 2.63239,-3.228743 0.61738,0.37045 1.23478,0.74088 1.8709,1.12254 -0.74087,1.728703 -1.48175,3.457413 -2.24507,5.238483 0.41492,-0.11636 0.82962,-0.23348 1.25701,-0.35369 0.54215,-0.14567 1.0843,-0.29133 1.64291,-0.44126 0.53836,-0.14735 1.0767,-0.29471 1.63114,-0.44741 1.45578,-0.25432 1.45578,-0.25432 2.9525,0.49403 0.12348,0.37041 0.24697,0.74087 0.37419,1.12254 -1.62446,1.189585 -3.06166,1.825365 -5.00463,2.338595 -0.46594,0.1254 -0.93191,0.25074 -1.41184,0.38037 -0.35194,0.0912 -0.70418,0.18144 -1.06698,0.27482 0.31983,0.20301 0.63953,0.40617 0.96906,0.61534 0.41336,0.2677 0.82672,0.53539 1.25262,0.8112 0.41242,0.26478 0.82478,0.5296 1.2497,0.80243 1.01873,0.76447 1.01873,0.76447 1.39293,1.88698 -0.49392,0.49393 -0.98783,0.98784 -1.49671,1.49672 -0.54648,-0.33718 -1.09299,-0.6743 -1.65603,-1.02167 -0.73383,-0.43189 -1.46808,-0.86304 -2.20269,-1.29357 -0.35816,-0.22353 -0.71619,-0.44719 -1.08524,-0.67747 -2.10547,-1.22401 -2.10547,-1.22401 -4.47973,-1.38289 -1.26425,0.32312 -1.26425,0.32312 -2.92416,1.00798 3.27481,2.35452 3.27481,2.35452 6.75857,4.37321 1.51494,0.88975 2.15077,1.5787 2.97005,3.11033 -0.92611,0.55566 -0.92611,0.55566 -1.8709,1.12255 -0.35053,-0.21928 -0.70106,-0.43859 -1.06223,-0.6645 -1.60257,-0.99225 -3.21635,-1.96458 -4.83105,-2.93697 -0.55129,-0.34537 -1.10263,-0.6907 -1.67065,-1.04653 -3.44399,-2.12833 -3.44399,-2.12833 -7.36223,-2.42337 -1.98214,0.73648 -2.18612,0.82317 -3.03435,2.58124 -0.12343,0.38592 -0.24695,0.77174 -0.37417,1.16931 -0.37417,1.07576 -0.37417,1.07576 -1.49671,2.19829 1.80377,2.02211 3.43588,3.56315 6.16955,4.02642 1.88383,0.0292 3.73642,-0.0313 5.61704,-0.14434 1.27426,-0.0581 2.54882,-0.11004 3.82362,-0.15492 0.55928,-0.0317 1.11853,-0.0633 1.69475,-0.0959 1.40391,0.11053 1.40391,0.11053 2.90062,1.60725 -2.20555,2.08251 -4.79022,1.66415 -7.62387,1.59026 -0.48957,-0.007 -0.97914,-0.0135 -1.48357,-0.0205 -1.20514,-0.0176 -2.40973,-0.0422 -3.6146,-0.0731 1.11884,1.58318 2.05724,2.72747 3.74177,3.74177 1.84231,0.17786 3.52434,0.19448 5.36219,0.0585 0.95448,-0.0662 1.91298,-0.0662 2.86972,-0.0585 0.49391,0.49391 0.98782,0.98783 1.4967,1.49671 -2.13967,1.9018 -4.01242,1.61773 -6.73518,1.49671 1.72871,1.97565 3.45739,3.9513 5.23848,5.98684 -0.49392,0.49391 -0.98783,0.98783 -1.4967,1.4967 -2.96349,-2.59305 -2.96349,-2.59305 -5.98685,-5.23847 0.0309,0.83347 0.0617,1.66696 0.0935,2.52569 0.0526,1.42069 0.0526,1.42069 -0.0935,2.71278 -0.49392,0.49392 -0.98783,0.98783 -1.4967,1.49671 -1.68551,-1.99138 -1.56091,-3.35417 -1.35641,-5.89329 0.0569,-0.63089 0.11385,-1.26179 0.17249,-1.91181 -0.445,-2.73653 -1.99064,-3.93088 -4.05457,-5.66527 0.008,0.3322 0.0157,0.66441 0.0238,1.00669 0.0311,1.50408 0.0506,3.00812 0.0698,4.51242 0.0126,0.52286 0.0251,1.04571 0.038,1.5844 0.005,0.50163 0.01,1.00326 0.0146,1.52011 0.008,0.46245 0.0157,0.92486 0.0238,1.40132 -0.16992,1.20038 -0.16992,1.20038 -1.66663,2.69708 -1.45777,-1.82266 -1.65075,-2.94482 -1.51131,-5.25309 0.0325,-0.87038 0.0325,-0.87038 0.0658,-1.75836 0.059,-1.2107 0.12712,-2.421 0.20464,-3.63067 0.10476,-3.24792 -0.007,-5.19304 -2.13542,-7.74811 -0.60585,-0.61999 -1.22079,-1.23211 -1.86207,-1.8154 -0.49776,0.35889 -0.49776,0.35889 -1.00557,0.725 -1.23948,0.77173 -1.23948,0.77173 -3.11036,1.14592 -1.37094,1.60598 -1.93651,3.16181 -2.24506,5.23848 0.55069,1.48868 0.55069,1.48868 1.5084,2.91449 0.32657,0.53729 0.65307,1.07465 0.98951,1.62826 0.3487,0.55376 0.69748,1.10745 1.05677,1.67795 0.689,1.09973 1.37144,2.20358 2.04629,3.31206 0.30655,0.48644 0.61305,0.97299 0.92885,1.47423 0.57955,1.34087 0.57955,1.34087 0.29964,2.63935 -0.15455,0.31238 -0.30917,0.62474 -0.46845,0.94658 -0.37045,-3e-5 -0.37045,-3e-5 -0.74835,-1e-5 -2.8459,-3.1508 -4.75344,-6.74898 -6.7352,-10.47696 -0.25467,0.99555 -0.25467,0.99555 -0.5145,2.01121 -0.51447,2.01119 -0.51447,2.01119 -1.35638,2.85311 0.19436,0.27639 0.38873,0.55279 0.58896,0.83758 1.72553,2.51014 3.09331,4.9614 4.27528,7.76855 -0.61737,0.37046 -1.23479,0.74088 -1.8709,1.12254 -1.23479,-1.48171 -2.46956,-2.96348 -3.74176,-4.49013 -0.20067,0.83346 -0.40133,1.66696 -0.60806,2.5257 -0.42435,1.76271 -0.61773,2.50168 -2.06672,3.63069 -0.52812,0.28656 -0.52812,0.28656 -1.066998,0.5788 -0.60074,-0.76733 -0.60074,-0.76733 -1.12253,-1.87088 0.19148,-1.30232 0.19148,-1.30232 0.63141,-2.68941 0.14037,-0.46064 0.28074,-0.92126 0.42534,-1.39586 0.43995,-1.15322 0.43995,-1.15322 1.188308,-1.90158 -0.24697,-0.24696 -0.49392,-0.49391 -0.748358,-0.74836 -1.48175,0.98785 -2.96351,1.97566 -4.49012,2.99344 -0.61738,-0.37047 -1.2348,-0.74087 -1.87091,-1.12254 1.37622,-2.42211 3.07525,-3.21271 5.49574,-4.44336 2.239668,-1.43675 3.101968,-3.69095 4.232878,-6.0336 -0.24696,-0.24697 -0.49391,-0.49392 -0.74836,-0.74836 -0.42441,0.36276 -0.84896,0.72536 -1.28617,1.09921 -2.551318,1.97351 -5.411998,3.77412 -8.442378,4.88769 -1.12837,-0.47064 -1.12837,-0.47064 -1.87089,-1.12254 0.84726,-1.7299 1.77422,-2.37404 3.45815,-3.27119 0.46068,-0.25222 0.92127,-0.50454 1.39586,-0.76444 0.96995,-0.51944 1.94048,-1.03785 2.91157,-1.55517 3.111018,-1.70667 4.764528,-3.09677 6.429748,-6.26599 0.0389,-2.68759 -1.92682,-4.24401 -3.71839,-6.10377 -0.40909,0.17743 -0.81805,0.35502 -1.23947,0.53789 -1.379778,0.58464 -1.379778,0.58464 -2.502318,0.95884 -2.36069,2.61807 -4.10744,5.50337 -5.8413,8.5561 -1.10317,1.90825 -2.25473,3.43187 -3.887304,4.91428 -0.49394,-0.74087 -0.98784,-1.48174 -1.49672,-2.24506 2.778284,-4.63046 2.778284,-4.63046 5.612664,-9.35445 -3.13968,0.15244 -3.13968,0.15244 -4.864304,1.12254 -0.75703,1.16133 -0.75703,1.16133 -1.44994,2.5257 -1.06852,1.94896 -2.07452,3.50093 -3.78853,4.95784 -0.49392,-0.49392 -0.98783,-0.98783 -1.49672,-1.49672 0.74087,-1.48173 1.48174,-2.96347 2.24507,-4.49012 -1.77621,1e-5 -2.80972,0.0831 -4.44335,0.56127 -0.63286,0.1852 -1.26568,0.3704 -1.91768,0.56125 -0.61739,-0.61739 -1.23479,-1.23479 -1.87089,-1.87089 1.62446,-1.18959 3.06166,-1.82538 5.00463,-2.33861 0.46594,-0.1254 0.93189,-0.25074 1.41184,-0.38038 0.35194,-0.0912 0.70419,-0.18144 1.06698,-0.27481 -0.51084,-0.32698 -0.51084,-0.32698 -1.03192,-0.66065 -1.45408,-1.00211 -2.61085,-2.18489 -3.83239,-3.45532 0.49392,-0.49391 0.98782,-0.98782 1.4967,-1.4967 0.54648,0.33718 1.09298,0.67431 1.65604,1.02169 0.73381,0.43187 1.46807,0.86301 2.20267,1.29355 0.53725,0.3353 0.53725,0.3353 1.08526,0.67745 2.10544,1.22403 2.10544,1.22403 4.47972,1.38291 1.264264,-0.32313 1.264264,-0.32313 2.924174,-1.008 -0.29477,-0.20397 -0.58938,-0.40807 -0.89298,-0.61833 -2.945204,-2.03898 -5.890374,-4.07796 -8.835564,-6.11695 0.37045,-0.61738 0.74087,-1.23479 1.12254,-1.87087 2.21512,0.94829 4.2887,1.93436 6.324464,3.22581 0.37169,0.23366 0.74323,0.46746 1.12618,0.70816 0.7583,0.48226 1.51159,0.97248 2.2597,1.47042 2.47306,1.53062 4.07118,1.94241 6.94284,1.38937 1.194998,-0.55417 1.500048,-1.12791 2.055618,-2.30369 0.12346,-0.38592 0.24698,-0.77175 0.37419,-1.16931 0.37417,-1.07578 0.37417,-1.07578 1.49671,-2.19831 -1.80376,-2.02211 -3.435878,-3.563135 -6.169558,-4.026405 -1.88383,-0.0292 -3.73642,0.0313 -5.61702,0.14434 -1.27427,0.0581 -2.54885,0.11005 -3.823644,0.15494 -0.55926,0.0316 -1.11853,0.0633 -1.69475,0.0959 -1.40391,-0.11055 -1.40391,-0.11055 -2.90061,-1.60725 2.20554,-2.08251 4.79022,-1.66417 7.623844,-1.59027 0.48958,0.007 0.97916,0.0135 1.48356,0.0205 1.20517,0.0176 2.40975,0.0422 3.61461,0.0731 -1.11882,-1.583203 -2.05722,-2.727493 -3.74177,-3.741783 -1.84231,-0.17786 -3.52431,-0.19449 -5.362164,-0.0585 -0.95448,0.0661 -1.913,0.0662 -2.86972,0.0585 -0.49392,-0.49391 -0.98783,-0.98783 -1.49671,-1.4967 2.13967,-1.90181 4.01242,-1.61774 6.735174,-1.49671 -1.728724,-1.97564 -3.457404,-3.95133 -5.238474,-5.98684 z M 103.7339,107.65374 c 0.41518,2.07598 0.89075,2.95535 2.46429,4.31765 1.65622,1.00231 2.78428,0.91882 4.64507,0.54666 1.32231,-0.80023 2.2008,-1.66524 2.99342,-2.99343 0.28936,-1.97723 0.23146,-3.1883 -0.53788,-5.02803 -1.31884,-1.31884 -2.52594,-1.66205 -4.32641,-2.08135 -3.07613,0.61522 -4.64129,2.25238 -5.23849,5.2385 z"
       fill="#FEFEFE"
       id="path1-2"
       style="fill:#41fefe;fill-opacity:1;stroke-width:0.529166" />
    <path
       d="m 61.211183,65.112703 c -0.103099,0.584706 -0.206198,1.16941 -0.312422,1.771835 -3.327627,-0.360669 -3.327627,-0.360669 -6.72248,-0.728625 0.427849,0.565285 0.855699,1.13057 1.296511,1.712984 0.729288,0.963553 0.729288,0.963553 1.257459,1.934463 -0.1031,0.584703 -0.2062,1.169409 -0.312422,1.771833 -2.144453,-0.564795 -2.722122,-1.574431 -3.817645,-3.442082 -0.401938,-0.700545 -0.401938,-0.700545 -0.811995,-1.415242 -1.644021,-1.688443 -3.302507,-1.766485 -5.585159,-1.967855 0.167424,0.227491 0.334848,0.45498 0.507344,0.689362 0.75496,1.032111 1.501796,2.069838 2.248581,3.107877 0.395465,0.536908 0.395465,0.536908 0.798923,1.084662 0.371884,0.520386 0.371884,0.520386 0.751283,1.051286 0.346373,0.477249 0.346373,0.477249 0.699746,0.964141 0.466917,0.918629 0.466917,0.918629 0.154497,2.690462 -1.903648,-0.558362 -2.585107,-1.2456 -3.613401,-2.920791 -0.267784,-0.414599 -0.535567,-0.829201 -0.811465,-1.256364 -0.549164,-0.871777 -1.091829,-1.747684 -1.627627,-2.627739 -1.510534,-2.312528 -2.536405,-3.612587 -5.264374,-4.35373 -0.72398,-0.136998 -1.450764,-0.262408 -2.181607,-0.356122 -0.171628,0.492551 -0.171628,0.492551 -0.34673,0.995051 -0.486757,1.141634 -0.486757,1.141634 -1.606988,2.3143 -0.171596,1.786604 0.193174,3.145631 0.990776,4.742005 1.109249,0.768038 1.109249,0.768038 2.471201,1.293894 0.733998,0.322387 0.733998,0.322387 1.482825,0.651287 0.512775,0.215533 1.025552,0.431053 1.553867,0.653112 1.015893,0.429803 2.029242,0.865683 3.039543,1.308469 0.450615,0.189295 0.901228,0.378591 1.365499,0.573621 1.057247,0.651065 1.057247,0.651065 1.495413,1.691633 0.04466,0.292872 0.08932,0.585736 0.135322,0.887479 -0.521063,0.364855 -0.521063,0.364855 -1.33237,0.230719 -3.23321,-0.859444 -6.057077,-2.278522 -8.986207,-3.877083 0.308027,0.817348 0.308027,0.817348 0.622312,1.651194 0.622313,1.651197 0.622313,1.651197 0.446574,2.647852 2.381896,1.022878 4.763794,2.045754 7.217868,3.099626 0.04307,0.610479 0.08615,1.220959 0.13054,1.849941 -0.171944,0.1204 -0.343901,0.240802 -0.521065,0.364851 -1.79115,-0.50069 -3.471835,-1.041637 -5.159289,-1.823184 0.14515,0.328802 0.29029,0.657603 0.439833,0.996369 0.181702,0.435336 0.363403,0.870669 0.550608,1.319199 0.183848,0.429829 0.367704,0.859651 0.557123,1.302507 0.381805,1.485013 0.191602,2.079875 -0.50436,3.416828 -0.792393,-0.241411 -0.792393,-0.241411 -1.693726,-0.755379 -0.501612,-1.000122 -0.501612,-1.000122 -0.871539,-2.18042 -0.126851,-0.389161 -0.25369,-0.77832 -0.384386,-1.179272 -0.255915,-1.017462 -0.255915,-1.017462 -0.0997,-1.90338 -0.292353,-0.05155 -0.584706,-0.103099 -0.885919,-0.156211 -0.5501,1.410213 -1.1002,2.820425 -1.66697,4.273373 -0.915719,0.06462 -0.915719,0.06462 -1.849939,0.13054 -0.22266,-2.357419 0.574987,-3.736238 1.660249,-5.773204 0.745306,-1.815491 0.584846,-2.982018 -0.04953,-4.818677 -0.153749,-0.35681 -0.307487,-0.713624 -0.465896,-1.081248 -0.118153,0.25349 -0.236295,0.50698 -0.358012,0.768153 -0.537992,1.14333 -1.086932,2.281051 -1.636296,3.418955 -0.278651,0.598643 -0.278651,0.598643 -0.562931,1.209378 -0.276637,0.56721 -0.276637,0.56721 -0.558869,1.14587 -0.167111,0.350833 -0.334202,0.701668 -0.506366,1.063135 -0.597388,0.785042 -0.597388,0.785042 -1.591339,0.965821 -0.282474,-0.01658 -0.56495,-0.03316 -0.855985,-0.05024 -0.26303,-1.647215 0.106538,-2.593698 0.832917,-4.076105 0.201621,-0.422207 0.403235,-0.844413 0.610963,-1.279411 0.431125,-0.882777 0.862684,-1.765339 1.294683,-2.647688 0.201715,-0.422778 0.403436,-0.845553 0.611266,-1.281143 0.187719,-0.383403 0.37542,-0.766815 0.568821,-1.161842 0.593228,-1.645161 0.409024,-2.995682 0.179768,-4.702531 -1.136704,-1.7263 -2.591786,-1.82431 -4.544191,-2.266011 -0.335189,-0.06571 -0.670423,-0.131161 -1.015793,-0.198741 -0.297383,0.484507 -0.297383,0.484507 -0.600775,0.9788 -0.675669,1.079779 -0.675669,1.079779 -1.274839,1.88759 -0.613292,3.276078 -0.201886,6.562737 0.164729,9.841618 0.09221,1.536024 -0.0338,2.786118 -0.371207,4.280617 -0.705108,-0.275046 -1.410215,-0.5501 -2.136687,-0.833485 -0.02019,-0.264056 -0.04048,-0.528105 -0.06127,-0.800162 -0.09211,-1.19035 -0.186673,-2.380491 -0.281292,-3.570641 -0.03175,-0.415679 -0.0636,-0.831347 -0.09636,-1.259618 -0.04771,-0.593483 -0.04771,-0.593483 -0.09636,-1.198956 -0.04304,-0.549342 -0.04304,-0.549342 -0.08698,-1.109774 -0.03807,-0.853413 -0.03807,-0.853413 -0.473354,-1.388651 -1.918939,1.983235 -1.918939,1.983235 -2.454908,4.603657 0.08387,0.955768 0.188945,1.909978 0.318056,2.860693 0.12877,1.286546 0.02899,2.278255 -0.258744,3.531503 -0.610477,0.04307 -1.220959,0.08615 -1.849936,0.130539 -0.326957,-1.564861 -0.653914,-3.129724 -0.990781,-4.742004 -0.231914,0.283507 -0.463832,0.56702 -0.702775,0.859118 -0.306466,0.365744 -0.612935,0.731492 -0.928692,1.108315 -0.302841,0.365204 -0.605684,0.730411 -0.917698,1.106681 -0.889642,0.886833 -0.889642,0.886833 -2.296624,1.095475 -0.266553,-0.197751 -0.533154,-0.395451 -0.807806,-0.599167 0.55109,-1.620269 1.241818,-2.763643 2.344445,-4.068276 0.263282,-0.31448 0.526567,-0.628964 0.797824,-0.952979 0.200958,-0.2348 0.40191,-0.469607 0.608954,-0.711529 -0.321666,0.01452 -0.643332,0.02904 -0.974744,0.044 -0.41833,0.01514 -0.836659,0.03028 -1.267666,0.04587 -0.416247,0.01668 -0.832494,0.03336 -1.261357,0.05056 -1.082031,-0.03557 -1.082031,-0.03557 -1.889838,-0.634744 0.103097,-0.584706 0.206194,-1.169409 0.312418,-1.771835 0.544886,-0.03168 1.089771,-0.06336 1.651167,-0.096 0.721494,-0.0571 1.442942,-0.114849 2.164334,-0.173223 0.358361,-0.01895 0.716718,-0.03789 1.085936,-0.0574 2.062744,-0.174243 2.062744,-0.174243 3.793344,-1.221165 0.722708,-0.841385 0.722708,-0.841385 1.544616,-2.127484 -3.428109,-0.04277 -3.428109,-0.04277 -6.837967,0.25011 -1.488614,0.119095 -2.267218,-0.05062 -3.584393,-0.717665 0.373915,-0.838395 0.373915,-0.838395 0.75538,-1.693728 0.350984,-0.01823 0.701965,-0.03644 1.063583,-0.05521 1.599597,-0.09042 3.197301,-0.200205 4.79565,-0.310385 0.552243,-0.02833 1.104484,-0.05665 1.673457,-0.08583 3.435627,-0.197166 3.435627,-0.197166 6.307657,-1.902028 1.021062,-1.479166 1.120834,-1.638968 0.854295,-3.276628 -0.102152,-0.328874 -0.204304,-0.657747 -0.309551,-0.996587 -0.263945,-0.931455 -0.263945,-0.931455 -0.02963,-2.26033 -2.241777,-0.528602 -4.129536,-0.805737 -6.258769,0.204381 -1.325897,0.898128 -2.586351,1.843432 -3.840662,2.839031 -0.858919,0.661706 -1.721044,1.319278 -2.586772,1.972047 -0.373978,0.294706 -0.747956,0.589412 -1.133265,0.893051 -1.031392,0.60749 -1.031392,0.60749 -2.8032265,0.295071 0.520338,-2.525298 2.5239945,-3.494138 4.5330255,-4.824199 0.34417,-0.233984 0.688345,-0.467968 1.042946,-0.709043 0.8477,-0.575309 1.698415,-1.145475 2.552407,-1.711384 -1.550898,-0.556865 -2.762159,-0.896094 -4.429582,-0.781054 -1.369465,0.774355 -2.5487345,1.582826 -3.7620755,2.573566 -0.632333,0.511412 -1.299708,0.978726 -1.969628,1.439814 -0.584703,-0.103099 -1.169407,-0.206198 -1.771828,-0.312422 0.562519,-2.367382 2.005061,-3.082605 3.959865,-4.325803 -2.16687,-0.532793 -4.33374,-1.065596 -6.5662674,-1.614541 0.103097,-0.584703 0.2061929,-1.169409 0.3124183,-1.771834 3.3276291,0.360672 3.3276291,0.360672 6.7224811,0.728625 -0.427847,-0.565282 -0.855697,-1.130568 -1.29651,-1.712984 -0.729289,-0.963553 -0.729289,-0.963553 -1.257459,-1.934461 0.1031,-0.584706 0.206199,-1.169411 0.312422,-1.771833 2.14445,0.564796 2.722123,1.574429 3.8176445,3.44208 0.267954,0.467034 0.535916,0.934061 0.811998,1.415244 1.64402,1.688444 3.302504,1.766485 5.585154,1.967853 -0.167422,-0.22749 -0.334845,-0.454979 -0.50734,-0.689362 -0.754961,-1.032119 -1.501798,-2.069846 -2.248581,-3.107886 -0.263644,-0.357938 -0.527287,-0.715874 -0.798919,-1.084662 -0.247929,-0.346923 -0.495849,-0.693847 -0.751287,-1.051285 -0.230916,-0.318167 -0.461833,-0.636333 -0.699747,-0.964143 -0.466917,-0.918628 -0.466917,-0.918628 -0.154497,-2.690461 1.903647,0.558363 2.585107,1.245602 3.613399,2.920793 0.401675,0.6219 0.401675,0.6219 0.811466,1.256362 0.549167,0.871778 1.09183,1.747685 1.627628,2.62774 1.510532,2.312527 2.536406,3.612588 5.264374,4.353728 0.723979,0.137 1.450764,0.26241 2.181607,0.356123 0.171631,-0.492553 0.171631,-0.492553 0.346733,-0.995052 0.486758,-1.141634 0.486758,-1.141634 1.606991,-2.314299 0.171594,-1.786602 -0.193175,-3.145631 -0.990779,-4.742005 -1.109249,-0.768036 -1.109249,-0.768036 -2.471197,-1.293893 -0.489335,-0.214921 -0.978665,-0.42985 -1.482825,-0.651289 -0.512776,-0.215533 -1.025554,-0.431052 -1.553868,-0.653111 -1.015894,-0.429801 -2.029241,-0.865684 -3.039545,-1.308468 -0.450616,-0.189295 -0.90123,-0.37859 -1.365499,-0.573623 -1.057245,-0.651064 -1.057245,-0.651064 -1.495408,-1.691632 -0.04467,-0.292865 -0.08932,-0.585736 -0.135334,-0.887479 0.257928,-0.180598 0.257928,-0.180598 0.521063,-0.364851 3.517677,0.806355 6.600121,2.38169 9.797515,4.011217 C 25.204356,46.58243 25.204356,46.58243 24.89007,45.748584 24.267759,44.09739 24.267759,44.09739 24.443498,43.100733 c -0.270094,-0.09766 -0.54018,-0.195341 -0.818455,-0.295966 -2.42525,-0.906501 -4.572693,-1.946414 -6.764266,-3.324724 0.249271,-0.558932 0.498549,-1.117862 0.755378,-1.693729 1.582167,0.429695 3.164329,0.859399 4.794438,1.30212 -0.266645,-0.678161 -0.53329,-1.356323 -0.808013,-2.055035 -0.563921,-1.434223 -0.789547,-2.043044 -0.331076,-3.535593 0.228073,-0.456986 0.228073,-0.456986 0.460731,-0.923212 0.792394,0.241413 0.792394,0.241413 1.69373,0.755381 0.50161,1.000124 0.50161,1.000124 0.871537,2.18042 0.12685,0.389158 0.25369,0.778319 0.384386,1.179271 0.255916,1.01746 0.255916,1.01746 0.0997,1.903378 0.292352,0.05155 0.584703,0.103099 0.885916,0.156211 0.5501,-1.410214 1.100201,-2.820426 1.666973,-4.273371 0.610479,-0.04307 1.22096,-0.08615 1.849938,-0.13054 0.22266,2.35742 -0.574987,3.736238 -1.66025,5.773206 -0.858945,2.092303 -0.360329,4.082263 -0.0056,6.264775 0.292352,0.05154 0.584705,0.103098 0.885917,0.15621 0.118703,-0.459492 0.237407,-0.918985 0.359707,-1.3924 0.814267,-2.617986 1.928224,-5.266402 3.495308,-7.519195 1.015124,-0.22243 1.015124,-0.22243 1.849938,-0.13054 0.253476,1.617556 -0.07791,2.518 -0.813087,3.963637 -0.19774,0.400224 -0.395482,0.800443 -0.599214,1.212795 -0.422112,0.834573 -0.845121,1.668691 -1.269054,2.502339 -1.334064,2.70506 -1.807634,4.47912 -1.421954,7.497634 1.283195,1.890312 3.410724,2.015612 5.564868,2.437065 0.198264,-0.323006 0.396514,-0.646008 0.600776,-0.978801 0.675671,-1.079781 0.675671,-1.079781 1.27484,-1.887591 0.367198,-2.973854 0.176805,-5.834434 -0.10426,-8.805315 -0.162195,-1.866521 -0.10326,-3.488816 0.310739,-5.316919 0.705108,0.275046 1.410214,0.5501 2.136686,0.833485 0.32308,4.578598 0.32308,4.578598 0.652682,9.249695 2.111782,-1.636854 2.111782,-1.636854 2.839635,-3.15314 -0.0391,-1.177696 -0.0391,-1.177696 -0.221826,-2.465492 -0.206201,-1.877976 -0.262392,-3.449041 0.220736,-5.299114 0.584704,0.103099 1.169409,0.206198 1.771832,0.312422 0.206556,1.392908 0.413112,2.78582 0.625926,4.220941 1.236737,-0.865972 1.915824,-1.427737 2.820177,-2.557111 0.350322,-0.437495 0.700643,-0.874989 1.061587,-1.325734 0.730882,0.128873 1.461763,0.257748 2.214792,0.390526 -0.551093,1.620271 -1.241822,2.763644 -2.344449,4.068278 -0.263285,0.314483 -0.526567,0.628963 -0.797825,0.952978 -0.20096,0.234802 -0.401911,0.469609 -0.608955,0.711529 0.515098,-0.02133 0.515098,-0.02133 1.040599,-0.0431 1.501006,-0.01119 2.883104,0.248398 4.353009,0.537404 -0.103097,0.584706 -0.206197,1.16941 -0.31242,1.771833 -0.544885,0.03168 -1.08977,0.06336 -1.651167,0.096 -0.721496,0.0571 -1.44294,0.114847 -2.164332,0.173223 -0.537541,0.02842 -0.537541,0.02842 -1.085938,0.0574 -2.062744,0.174242 -2.062744,0.174242 -3.793342,1.221165 -0.722708,0.841387 -0.722708,0.841387 -1.544615,2.127483 0.304672,-0.0016 0.609346,-0.0032 0.923248,-0.0049 3.044754,-0.0162 6.089506,-0.0324 9.134257,-0.0486 0.04307,0.61048 0.08615,1.220961 0.13054,1.849938 -2.004679,0.419683 -3.929228,0.74404 -5.976315,0.837363 -0.372699,0.01847 -0.745402,0.03696 -1.129397,0.05599 -0.7631,0.03396 -1.526602,0.05984 -2.290245,0.07788 -2.468196,0.139959 -3.781692,0.632391 -5.511527,2.41752 -0.561887,0.968469 -0.494561,1.516669 -0.30822,2.606195 0.102151,0.328874 0.204303,0.657747 0.30955,0.996588 0.263945,0.931455 0.263945,0.931455 0.02963,2.26033 2.241775,0.528601 4.129534,0.805737 6.258767,-0.20438 1.325897,-0.89813 2.586349,-1.843429 3.840661,-2.839033 0.85892,-0.661704 1.721045,-1.319276 2.586775,-1.972044 0.373978,-0.294708 0.747953,-0.589415 1.133261,-0.893052 1.031395,-0.607491 1.031395,-0.607491 2.803227,-0.29507 -0.520337,2.525298 -2.523993,3.494136 -4.533024,4.824198 -0.344174,0.233984 -0.688343,0.46797 -1.042947,0.709044 -0.847697,0.575309 -1.698414,1.145475 -2.552408,1.711383 1.550897,0.556867 2.762159,0.896094 4.429583,0.781055 1.369462,-0.774356 2.548728,-1.58283 3.762067,-2.573567 0.632335,-0.511412 1.299714,-0.978727 1.969629,-1.439814 0.584705,0.1031 1.16941,0.206199 1.771832,0.312423 -0.562522,2.367381 -2.005066,3.082603 -3.959869,4.325801 2.166872,0.532795 4.333739,1.065596 6.566271,1.614541 z M 35.467171,58.289689 c -1.301219,-1.24304 -2.061039,-1.623496 -3.820878,-1.804846 -1.641845,0.109583 -2.386578,0.71769 -3.500773,1.884033 -0.53055,1.201863 -0.720497,2.232443 -0.624843,3.543665 0.762513,1.517785 1.393261,2.332788 2.82587,3.238659 1.561271,0.275294 2.569079,-0.07423 4.027148,-0.660096 1.84189,-1.928099 2.133487,-3.831088 1.093476,-6.201415 z"
       fill="#FEFEFE"
       id="path1-3"
       style="fill:#41fefe;fill-opacity:1;stroke-width:0.449791" />
    <path
       d="m 46.995478,206.1808 c 0.785814,0 1.571624,0 2.381244,0 0.29468,4.42019 0.29468,4.42019 0.5953,8.92969 0.63849,-0.68758 1.27695,-1.37518 1.93478,-2.08359 1.0883,-1.17203 1.0883,-1.17203 2.23243,-2.08359 0.78581,0 1.57162,0 2.38124,0 -0.24332,2.92493 -1.42652,3.90991 -3.60909,5.76709 -0.82073,0.6849 -0.82073,0.6849 -1.65803,1.38363 -1.82292,2.53089 -1.54347,4.71056 -1.28133,7.73208 0.25806,-0.27051 0.51609,-0.54101 0.78195,-0.81972 1.17175,-1.22123 2.35271,-2.43317 3.53407,-3.64513 0.60894,-0.63884 0.60894,-0.63884 1.23017,-1.2906 0.5928,-0.60433 0.5928,-0.60433 1.1976,-1.22087 0.54246,-0.56115 0.54246,-0.56115 1.09587,-1.13364 1.09003,-0.81972 1.09003,-0.81972 3.4713,-0.81972 -0.29028,2.60959 -1.02942,3.65575 -2.97657,5.38107 -0.47885,0.44431 -0.95772,0.88864 -1.45107,1.34643 -1.0101,0.91615 -2.02705,1.82477 -3.05098,2.7254 -2.66704,2.50036 -4.1258,4.13629 -4.46486,7.86231 -0.0112,0.97515 -0.009,1.95127 0.0371,2.9254 0.68146,0.11048 0.68146,0.11048 1.37666,0.2232 1.59991,0.37209 1.59991,0.37209 3.38585,1.5627 2.36812,-0.18698 4.05567,-0.97475 5.95311,-2.38125 0.74617,-1.62231 0.74617,-1.62231 1.11855,-3.51839 0.2515,-1.03079 0.2515,-1.03079 0.50809,-2.08242 0.16313,-0.71791 0.32616,-1.43581 0.49417,-2.17546 0.32672,-1.42292 0.66197,-2.84391 1.00692,-4.26253 0.1431,-0.63083 0.28633,-1.26169 0.43382,-1.91165 0.60563,-1.52768 0.60563,-1.52768 1.86122,-2.33795 0.37148,-0.12555 0.74295,-0.25103 1.12568,-0.38034 0.5953,0.59531 0.5953,0.59531 0.60694,1.68361 -0.37715,4.41175 -1.57779,8.4186 -2.98821,12.60389 0.99455,-0.58936 0.99455,-0.58936 2.00919,-1.19063 2.00918,-1.19063 2.00918,-1.19063 3.34863,-1.19063 0.78581,-3.3397 1.57162,-6.6794 2.38126,-10.1203 0.78581,-0.19643 1.57163,-0.39292 2.38124,-0.59533 0.19643,0.19643 0.3929,0.39292 0.59531,0.59533 -0.24095,2.44969 -0.55976,4.76467 -1.19061,7.14375 0.39521,-0.26476 0.7904,-0.52952 1.19758,-0.80228 0.52567,-0.3369 1.05134,-0.67379 1.59294,-1.02087 0.51799,-0.33843 1.03599,-0.67685 1.56966,-1.02553 1.84786,-0.83894 2.66691,-0.72781 4.56951,-0.1278 -0.13253,1.0883 -0.13253,1.0883 -0.59533,2.38124 -1.18829,0.88367 -1.18829,0.88367 -2.6417,1.63712 -0.47808,0.25477 -0.95616,0.50954 -1.44873,0.77205 -1.26738,0.5674 -1.26738,0.5674 -2.45799,0.5674 0,0.3929 0,0.78581 0,1.19063 1.96452,0.3929 3.92906,0.78582 5.95311,1.19061 0.29469,1.17873 0.29469,1.17873 0.59531,2.38127 -3.02153,0.832 -5.00204,0.10935 -7.90648,-0.83716 -2.53764,-0.5542 -4.02124,-0.077 -6.2694,1.172 -0.42973,0.28242 -0.85948,0.56482 -1.30223,0.85577 0.35755,0.0958 0.71512,0.19147 1.08351,0.29011 1.61388,0.43846 3.22297,0.89247 4.83239,1.34701 0.84434,0.22561 0.84434,0.22561 1.70573,0.45578 0.80289,0.23022 0.80289,0.23022 1.62198,0.46508 0.49569,0.13725 0.99137,0.27436 1.5021,0.41569 1.16052,0.5982 1.16052,0.5982 1.62461,1.8522 0.0432,0.37199 0.0866,0.744 0.13117,1.12727 -2.08658,0.72142 -3.40517,0.45722 -5.50431,-0.14873 -0.59665,-0.16582 -1.19331,-0.33151 -1.80803,-0.50229 -1.24972,-0.35905 -2.49925,-0.71871 -3.74861,-1.07901 -0.59742,-0.16582 -1.19484,-0.33151 -1.81035,-0.50229 -0.5429,-0.1566 -1.08578,-0.31311 -1.64511,-0.47439 -2.28069,-0.39512 -3.99866,0.15525 -6.17069,0.84645 -1.98887,1.87837 -1.78221,3.79749 -1.9092,6.4438 -0.009,0.452 -0.0158,0.90401 -0.0257,1.36969 0.69987,0.27625 0.69987,0.27625 1.41388,0.55811 1.56269,0.63252 1.56269,0.63252 2.7533,1.22783 4.41106,0.0463 8.60043,-1.24515 12.78993,-2.4766 1.9809,-0.47322 3.63926,-0.59627 5.66478,-0.49997 -0.19643,0.98228 -0.39292,1.96454 -0.59533,2.97657 -0.33953,0.0871 -0.67905,0.17415 -1.02886,0.26379 -1.53036,0.39363 -3.05989,0.79042 -4.58939,1.18728 -0.53449,0.13702 -1.06898,0.27396 -1.61966,0.4151 -0.76262,0.19867 -0.76262,0.19867 -1.54062,0.40113 -0.70612,0.18247 -0.70612,0.18247 -1.4265,0.36844 -1.10361,0.24576 -1.10361,0.24576 -1.70121,0.93613 3.02601,2.04539 3.02601,2.04539 6.56472,2.14173 1.22647,-0.32899 2.44608,-0.68524 3.65559,-1.07203 1.64732,-0.46353 2.96285,-0.56138 4.6625,-0.47439 0.19642,0.78581 0.39289,1.57162 0.5953,2.38126 -1.96452,0.78581 -3.92906,1.57163 -5.95311,2.38124 0.42284,0.23713 0.84566,0.47426 1.2813,0.71856 0.54716,0.31541 1.09431,0.63081 1.65805,0.95576 0.54563,0.31079 1.09123,0.62158 1.65339,0.9418 1.36037,0.95576 1.36037,0.95576 1.9557,2.7417 -0.19642,0.39289 -0.39292,0.78581 -0.59533,1.19063 -2.23854,-0.34594 -3.88759,-0.98345 -5.84149,-2.12081 -0.47041,-0.2709 -0.94084,-0.54177 -1.42549,-0.82089 -0.35224,-0.2079 -0.70447,-0.41591 -1.06738,-0.63018 0.0929,0.41592 0.18563,0.83185 0.28137,1.26039 0.11587,0.54177 0.23175,1.08355 0.35115,1.64175 0.11745,0.53872 0.23481,1.07742 0.3558,1.63247 0.20227,1.41851 0.20227,1.41851 -0.39301,2.60914 -0.78581,0 -1.57163,0 -2.38124,0 -0.1665,-0.70294 -0.33307,-1.40586 -0.50463,-2.13009 -0.24021,-0.92732 -0.48132,-1.85439 -0.72322,-2.78125 -0.1071,-0.46274 -0.21398,-0.92547 -0.32438,-1.40222 -0.70119,-2.64859 -0.70119,-2.64859 -2.46353,-4.66369 -1.26277,-0.74862 -1.26277,-0.74862 -3.12799,-1.52431 0.7321,4.47809 0.7321,4.47809 1.89756,8.85526 0.49734,1.91293 0.45508,2.96678 -0.1116,4.83691 -1.17873,-0.29468 -1.17873,-0.29468 -2.38127,-0.5953 -0.1044,-0.45329 -0.2088,-0.90659 -0.31639,-1.3736 -0.48551,-2.06418 -0.99579,-4.12142 -1.50674,-6.17943 -0.1638,-0.71329 -0.32769,-1.42659 -0.49648,-2.1615 -1.04661,-4.43275 -1.04661,-4.43275 -3.92884,-7.7844 -2.16266,-0.99092 -2.39387,-1.08423 -4.46717,-0.36045 -0.40518,0.2088 -0.81036,0.41747 -1.22783,0.63252 -1.15342,0.55812 -1.15342,0.55812 -2.93935,0.55812 -0.1737,3.04346 -0.10125,5.56769 1.70484,8.11084 1.47537,1.52179 2.99718,2.94743 4.58314,4.3535 1.05989,0.96746 2.11511,1.94004 3.16492,2.91843 0.47009,0.41972 0.94016,0.83943 1.42447,1.27186 1.02888,1.20474 1.02888,1.20474 1.02888,3.58598 -3.41113,-0.0979 -5.13443,-2.48676 -7.3298,-4.7997 -0.38407,-0.39483 -0.76815,-0.78966 -1.16388,-1.19646 -0.94468,-0.97267 -1.88338,-1.95048 -2.81727,-2.93352 -0.36938,2.14944 -0.53316,3.80621 0,5.95311 1.32406,1.60704 2.64888,2.9583 4.21909,4.31211 0.81191,0.70665 1.57439,1.46913 2.32936,2.23634 0,0.78581 0,1.57162 0,2.38124 -3.21498,-0.18922 -4.47876,-1.90496 -6.54845,-4.16718 -0.19642,2.9468 -0.39289,5.89358 -0.5953,8.92969 -0.78582,0 -1.57163,0 -2.381247,0 -0.294676,-4.42019 -0.294676,-4.42019 -0.595321,-8.92969 -0.63846,0.68758 -1.276942,1.37518 -1.934752,2.08359 -1.088303,1.17203 -1.088303,1.17203 -2.232428,2.08359 -0.785812,0 -1.571625,0 -2.381242,0 0.243315,-2.92493 1.426522,-3.90991 3.609067,-5.76709 0.547155,-0.45659 1.09431,-0.91318 1.658048,-1.38363 1.822905,-2.53089 1.543455,-4.71054 1.281307,-7.73208 -0.25803,0.27051 -0.51606,0.54101 -0.78192,0.81972 -1.171755,1.22123 -2.352712,2.43317 -3.534097,3.64511 -0.405945,0.42592 -0.81189,0.85183 -1.230143,1.29062 -0.395212,0.40289 -0.790425,0.80577 -1.197607,1.22087 -0.361643,0.37411 -0.723263,0.7482 -1.095863,1.13364 -1.090057,0.81972 -1.090057,0.81972 -3.4713,0.81972 0.290273,-2.60957 1.02942,-3.65575 2.97657,-5.38105 0.718268,-0.6665 0.718268,-0.6665 1.45107,-1.34645 1.01007,-0.91615 2.027025,-1.82477 3.050978,-2.7254 2.667037,-2.50036 4.12578,-4.13629 4.464826,-7.86231 0.01125,-0.97515 0.009,-1.95127 -0.03713,-2.9254 -0.681451,-0.11048 -0.681451,-0.11048 -1.376656,-0.2232 -1.599908,-0.37209 -1.599908,-0.37209 -3.385845,-1.5627 -2.368125,0.18698 -4.055693,0.97473 -5.953118,2.38125 -0.746167,1.62231 -0.746167,1.62231 -1.118542,3.51839 -0.167625,0.68719 -0.335363,1.37439 -0.508118,2.08242 -0.163125,0.71791 -0.326137,1.43581 -0.494145,2.17546 -0.326745,1.42292 -0.661972,2.84391 -1.00692,4.26253 -0.1431,0.63083 -0.286335,1.26169 -0.433845,1.91165 -0.605632,1.52768 -0.605632,1.52768 -1.861222,2.33795 -0.371453,0.12555 -0.742928,0.25103 -1.125653,0.38034 -0.294682,-0.29468 -0.294682,-0.29468 -0.595305,-0.59531 0.24255,-4.77033 1.587443,-9.15012 2.976548,-13.69219 -0.994545,0.58936 -0.994545,0.58936 -2.009183,1.19063 -2.00916,1.19063 -2.00916,1.19063 -3.34863,1.19063 -0.06525,0.37449 -0.1305,0.74898 -0.197775,1.13481 -0.62415,3.36947 -1.486057,6.40749 -2.778885,9.58082 -0.785812,-0.19643 -1.571625,-0.39292 -2.381265,-0.59533 0.196425,-2.16097 0.392918,-4.32196 0.595328,-6.54842 -0.822645,0.50339 -1.645313,1.00681 -2.492888,1.52548 -1.73979,1.06465 -2.48148,1.49868 -4.532266,1.24411 -0.648067,-0.19215 -0.648067,-0.19215 -1.30923,-0.38835 0.132525,-1.0883 0.132525,-1.0883 0.595305,-2.38124 1.188316,-0.88367 1.188316,-0.88367 2.641704,-1.63712 0.478102,-0.25477 0.956182,-0.50954 1.448752,-0.77205 1.267358,-0.5674 1.267358,-0.5674 2.45799,-0.5674 0,-0.39292 0,-0.78581 0,-1.19063 -1.964542,-0.3929 -3.929062,-0.78582 -5.953118,-1.19061 -0.196425,-0.78582 -0.392918,-1.57163 -0.595328,-2.38127 3.021549,-0.832 5.002044,-0.10935 7.906501,0.83716 2.924573,0.63871 5.403735,-0.46854 8.166938,-1.43246 0,-0.39292 0,-0.78582 0,-1.19064 -0.626198,-0.049 -1.252373,-0.0983 -1.89756,-0.14872 -3.599483,-0.45965 -7.307505,-1.30293 -10.604003,-2.82773 -0.523215,-1.27202 -0.523215,-1.27202 -0.595305,-2.38127 2.05011,-0.70213 3.299918,-0.47716 5.353155,0.14873 0.567113,0.16582 1.134225,0.33151 1.718505,0.50229 1.184805,0.35838 2.36925,0.71804 3.553268,1.07901 3.832447,1.11714 6.253627,1.32669 10.099395,0.13027 2.168955,-2.10699 1.843312,-4.90887 1.89756,-7.81348 -0.466583,-0.18428 -0.933165,-0.36835 -1.413878,-0.55812 -1.562692,-0.63252 -1.562692,-0.63252 -2.753325,-1.22782 -3.960585,0.20475 -7.645365,1.11046 -11.453062,2.15962 -2.395575,0.64044 -4.52367,0.9364 -7.001618,0.81695 0.196425,-0.98228 0.392895,-1.96454 0.595305,-2.97657 5.893605,-1.47339 5.893605,-1.47339 11.906258,-2.97657 -2.618865,-2.37634 -2.618865,-2.37634 -4.762508,-2.97655 -1.52604,0.32162 -1.52604,0.32162 -3.1626,0.85577 -2.40039,0.70038 -4.435245,1.13469 -6.957698,0.93017 0,-0.78581 0,-1.57163 0,-2.38127 1.768073,-0.58934 3.536146,-1.1787 5.357813,-1.78593 -1.412977,-1.41296 -2.301255,-2.16898 -3.98115,-3.08817 -0.650767,-0.35609 -1.301513,-0.71215 -1.971991,-1.07901 0,-0.98226 0,-1.96455 0,-2.97657 2.238571,0.34593 3.887619,0.98345 5.841519,2.1208 0.470407,0.2709 0.940815,0.54178 1.425487,0.82089 0.352238,0.2079 0.704475,0.41591 1.067378,0.63018 -0.14625,-0.66647 -0.14625,-0.66647 -0.295335,-1.34642 -0.35955,-1.95388 -0.33885,-3.81499 -0.29997,-5.79733 0.785812,0 1.571625,0 2.381242,0 0.1665,0.70295 0.333045,1.40587 0.50463,2.13012 0.240188,0.92729 0.48132,1.85436 0.723195,2.78123 0.16065,0.6941 0.16065,0.6941 0.324405,1.40222 0.701168,2.64859 0.701168,2.64859 2.463503,4.66369 1.26279,0.74862 1.26279,0.74862 3.128017,1.5243 -0.07223,-0.39674 -0.144225,-0.79348 -0.218475,-1.20224 -0.7209,-3.96488 -1.441777,-7.92974 -2.162655,-11.89462 0.785813,-0.19643 1.571625,-0.39292 2.381243,-0.59531 1.007752,2.51649 1.872855,4.95043 2.464965,7.59719 0.1098,0.48155 0.219375,0.96309 0.332527,1.45922 0.2196,0.98685 0.428873,1.97606 0.627885,2.96728 0.7497,3.18492 1.693418,4.78379 4.41774,6.62823 1.391468,0.50978 2.090543,0.29603 3.467813,-0.19733 0.405202,-0.2088 0.810382,-0.41746 1.227847,-0.63252 1.153418,-0.55811 1.153418,-0.55811 2.939349,-0.55811 0.1737,-3.04346 0.10125,-5.56769 -1.704841,-8.11085 -1.47537,-1.52178 -2.99718,-2.94743 -4.583138,-4.3535 -1.059885,-0.96745 -2.115135,-1.94004 -3.16494,-2.91843 -0.47007,-0.41971 -0.94014,-0.83943 -1.424475,-1.27186 -1.028857,-1.20474 -1.028857,-1.20474 -1.028857,-3.58598 3.411112,0.0979 5.134432,2.48677 7.32978,4.7997 0.384075,0.39483 0.768172,0.78966 1.16388,1.19644 0.944707,0.9727 1.883385,1.9505 2.81727,2.93355 0.369405,-2.14945 0.533182,-3.80621 0,-5.95312 -1.324058,-1.60704 -2.648858,-2.9583 -4.219065,-4.3121 -0.811913,-0.70666 -1.574415,-1.46914 -2.329358,-2.23634 0,-0.78582 0,-1.57163 0,-2.38125 3.21498,0.18923 4.47876,1.90497 6.548423,4.16718 0.196425,-2.9468 0.392917,-5.8936 0.595321,-8.92968 z m -2.976564,35.12345 c -1.321155,1.98171 -1.64241,3.05952 -1.474335,5.395 0.520178,2.11484 1.483965,2.94579 3.260273,4.12999 1.688461,0.4153 3.07541,0.42604 4.7625,0 1.80306,-1.34271 2.72039,-2.35215 3.57188,-4.42764 0,-2.09826 -0.68722,-3.33153 -1.78594,-5.09735 -2.93645,-1.95764 -5.483875,-1.90035 -8.334378,0 z"
       fill="#FEFEFE"
       id="path1-2-6"
       style="fill:#41fefe;fill-opacity:1;stroke-width:0.595312" />
  </g>
</svg>
