<?xml version="1.0" encoding="UTF-8" standalone="no"?>
<svg
   version="1.0"
   width="190.5mm"
   height="338.67001mm"
   id="svg46"
   xmlns="http://www.w3.org/2000/svg"
   xmlns:svg="http://www.w3.org/2000/svg">
  <defs
     id="defs1">
    <clipPath
       clipPathUnits="userSpaceOnUse"
       id="clipEmfPath1">
      <path
         d="M 0,0 H 718.37489 V 1277.1528 H 0 Z"
         id="path1" />
    </clipPath>
  </defs>
  <path
     style="fill:#452987;fill-opacity:1;fill-rule:evenodd;stroke:none"
     clip-path="url(#clipEmfPath1)"
     d="m 196.13984,927.60077 30.65981,-0.0377 16.48012,15.27334 -61.31962,0.0754 z"
     id="path3" />
  <path
     style="fill:#325490;fill-opacity:1;fill-rule:evenodd;stroke:none"
     clip-path="url(#clipEmfPath1)"
     d="m 196.13984,926.92196 v 0.67881 l -0.49026,-0.45254 0.18856,-0.22627 z"
     id="path4" />
  <path
     style="fill:#325490;fill-opacity:1;fill-rule:evenodd;stroke:none"
     clip-path="url(#clipEmfPath1)"
     d="m 196.13984,928.27959 v -0.67882 -0.67881 l 30.65981,-0.0377 v 0.67882 0.67881 z"
     id="path5" />
  <path
     style="fill:#325490;fill-opacity:1;fill-rule:evenodd;stroke:none"
     clip-path="url(#clipEmfPath1)"
     d="m 227.2522,927.0728 -0.45255,0.49026 v -0.67882 h 0.26399 z"
     id="path6" />
  <path
     style="fill:#325490;fill-opacity:1;fill-rule:evenodd;stroke:none"
     clip-path="url(#clipEmfPath1)"
     d="m 226.34711,928.05331 0.45254,-0.49025 0.45255,-0.49026 16.48012,15.27334 -0.45255,0.49026 -0.45254,0.49025 z"
     id="path7" />
  <path
     style="fill:#325490;fill-opacity:1;fill-rule:evenodd;stroke:none"
     clip-path="url(#clipEmfPath1)"
     d="m 243.27977,943.51521 v -0.67881 l 0.45255,-0.49026 1.2822,1.16907 z"
     id="path8" />
  <path
     style="fill:#325490;fill-opacity:1;fill-rule:evenodd;stroke:none"
     clip-path="url(#clipEmfPath1)"
     d="m 243.27977,942.15758 v 0.67882 0.67881 l -61.31962,0.0754 v -0.67882 -0.67881 z"
     id="path9" />
  <path
     style="fill:#325490;fill-opacity:1;fill-rule:evenodd;stroke:none"
     clip-path="url(#clipEmfPath1)"
     d="m 181.46989,942.45928 0.49026,0.45254 v 0.67882 h -1.54619 z"
     id="path10" />
  <path
     style="fill:#325490;fill-opacity:1;fill-rule:evenodd;stroke:none"
     clip-path="url(#clipEmfPath1)"
     d="m 182.4504,943.36436 -0.49025,-0.45254 -0.49026,-0.45254 14.17969,-15.31105 0.49026,0.45254 0.49025,0.45254 z"
     id="path11" />
  <path
     style="fill:#452987;fill-opacity:1;fill-rule:evenodd;stroke:none"
     clip-path="url(#clipEmfPath1)"
     d="M 208.99961,761.55507 76.555253,625.45265 348.68467,625.6035 Z"
     id="path12" />
  <path
     style="fill:#452987;fill-opacity:1;fill-rule:evenodd;stroke:none"
     clip-path="url(#clipEmfPath1)"
     d="m 207.52885,761.44193 1.50847,0.0754 1.50848,0.0754 -11.01189,197.12035 -1.50847,-0.0754 -1.50848,-0.0754 z"
     id="path13" />
  <path
     style="fill:#452987;fill-opacity:1;fill-rule:evenodd;stroke:none"
     clip-path="url(#clipEmfPath1)"
     d="m 525.40285,613.6111 30.65981,-0.0377 16.48013,15.27334 -61.31963,0.0754 z"
     id="path14" />
  <path
     style="fill:#325490;fill-opacity:1;fill-rule:evenodd;stroke:none"
     clip-path="url(#clipEmfPath1)"
     d="m 525.40285,612.93228 v 0.67882 l -0.49025,-0.45255 0.18856,-0.22627 z"
     id="path15" />
  <path
     style="fill:#325490;fill-opacity:1;fill-rule:evenodd;stroke:none"
     clip-path="url(#clipEmfPath1)"
     d="m 525.40285,614.28991 v -0.67881 -0.67882 l 30.65981,-0.0377 v 0.67881 0.67882 z"
     id="path16" />
  <path
     style="fill:#325490;fill-opacity:1;fill-rule:evenodd;stroke:none"
     clip-path="url(#clipEmfPath1)"
     d="m 556.51521,613.08313 -0.45255,0.49025 v -0.67881 h 0.26399 z"
     id="path17" />
  <path
     style="fill:#325490;fill-opacity:1;fill-rule:evenodd;stroke:none"
     clip-path="url(#clipEmfPath1)"
     d="m 555.61012,614.06364 0.45254,-0.49026 0.45255,-0.49025 16.48012,15.27334 -0.45254,0.49025 -0.45255,0.49026 z"
     id="path18" />
  <path
     style="fill:#325490;fill-opacity:1;fill-rule:evenodd;stroke:none"
     clip-path="url(#clipEmfPath1)"
     d="m 572.54279,629.52554 v -0.67882 l 0.45254,-0.49025 1.28221,1.16907 z"
     id="path19" />
  <path
     style="fill:#325490;fill-opacity:1;fill-rule:evenodd;stroke:none"
     clip-path="url(#clipEmfPath1)"
     d="m 572.54279,628.16791 v 0.67881 0.67882 l -61.31963,0.0754 v -0.67881 -0.67882 z"
     id="path20" />
  <path
     style="fill:#325490;fill-opacity:1;fill-rule:evenodd;stroke:none"
     clip-path="url(#clipEmfPath1)"
     d="m 510.7329,628.4696 0.49026,0.45255 v 0.67881 h -1.54619 z"
     id="path21" />
  <path
     style="fill:#325490;fill-opacity:1;fill-rule:evenodd;stroke:none"
     clip-path="url(#clipEmfPath1)"
     d="m 511.71341,629.37469 -0.49025,-0.45254 -0.49026,-0.45255 14.1797,-15.31105 0.49025,0.45255 0.49026,0.45254 z"
     id="path22" />
  <path
     style="fill:#452987;fill-opacity:1;fill-rule:evenodd;stroke:none"
     clip-path="url(#clipEmfPath1)"
     d="M 538.26263,447.56539 405.81827,311.46297 677.94768,311.61382 Z"
     id="path23" />
  <path
     style="fill:#452987;fill-opacity:1;fill-rule:evenodd;stroke:none"
     clip-path="url(#clipEmfPath1)"
     d="m 536.79186,447.45226 1.50848,0.0754 1.50848,0.0754 -11.01189,197.12035 -1.50848,-0.0754 -1.50848,-0.0754 z"
     id="path24" />
  <path
     style="fill:#452987;fill-opacity:1;fill-rule:evenodd;stroke:none"
     clip-path="url(#clipEmfPath1)"
     d="m 486.78582,1158.5864 30.65981,-0.038 16.48012,15.2734 -61.31962,0.075 z"
     id="path25" />
  <path
     style="fill:#325490;fill-opacity:1;fill-rule:evenodd;stroke:none"
     clip-path="url(#clipEmfPath1)"
     d="m 486.78582,1157.9076 v 0.6788 l -0.49026,-0.4525 0.18856,-0.2263 z"
     id="path26" />
  <path
     style="fill:#325490;fill-opacity:1;fill-rule:evenodd;stroke:none"
     clip-path="url(#clipEmfPath1)"
     d="m 486.78582,1159.2653 v -0.6789 -0.6788 l 30.65981,-0.038 v 0.6788 0.6789 z"
     id="path27" />
  <path
     style="fill:#325490;fill-opacity:1;fill-rule:evenodd;stroke:none"
     clip-path="url(#clipEmfPath1)"
     d="m 517.89817,1158.0585 -0.45254,0.4902 v -0.6788 h 0.26398 z"
     id="path28" />
  <path
     style="fill:#325490;fill-opacity:1;fill-rule:evenodd;stroke:none"
     clip-path="url(#clipEmfPath1)"
     d="m 516.99309,1159.039 0.45254,-0.4903 0.45254,-0.4902 16.48012,15.2733 -0.45254,0.4903 -0.45254,0.4902 z"
     id="path29" />
  <path
     style="fill:#325490;fill-opacity:1;fill-rule:evenodd;stroke:none"
     clip-path="url(#clipEmfPath1)"
     d="m 533.92575,1174.5009 v -0.6788 l 0.45254,-0.4903 1.28221,1.1691 z"
     id="path30" />
  <path
     style="fill:#325490;fill-opacity:1;fill-rule:evenodd;stroke:none"
     clip-path="url(#clipEmfPath1)"
     d="m 533.92575,1173.1433 v 0.6788 0.6788 l -61.31962,0.075 v -0.6788 -0.6788 z"
     id="path31" />
  <path
     style="fill:#325490;fill-opacity:1;fill-rule:evenodd;stroke:none"
     clip-path="url(#clipEmfPath1)"
     d="m 472.11587,1173.445 0.49026,0.4525 v 0.6788 h -1.54619 z"
     id="path32" />
  <path
     style="fill:#325490;fill-opacity:1;fill-rule:evenodd;stroke:none"
     clip-path="url(#clipEmfPath1)"
     d="m 473.09638,1174.35 -0.49025,-0.4525 -0.49026,-0.4525 14.17969,-15.3111 0.49026,0.4525 0.49025,0.4526 z"
     id="path33" />
  <path
     style="fill:#452987;fill-opacity:1;fill-rule:evenodd;stroke:none"
     clip-path="url(#clipEmfPath1)"
     d="M 499.64559,992.54074 367.20123,856.43833 639.33064,856.58917 Z"
     id="path34" />
  <path
     style="fill:#452987;fill-opacity:1;fill-rule:evenodd;stroke:none"
     clip-path="url(#clipEmfPath1)"
     d="m 498.17483,992.42761 1.50847,0.0754 1.50848,0.0754 -11.01189,197.12029 -1.50848,-0.075 -1.50847,-0.075 z"
     id="path35" />
  <path
     style="fill:#452987;fill-opacity:1;fill-rule:evenodd;stroke:none"
     clip-path="url(#clipEmfPath1)"
     d="m 190.67161,433.15943 30.65981,-0.0377 16.48012,15.27333 -61.31963,0.0754 z"
     id="path36" />
  <path
     style="fill:#325490;fill-opacity:1;fill-rule:evenodd;stroke:none"
     clip-path="url(#clipEmfPath1)"
     d="m 190.67161,432.48061 v 0.67882 l -0.49026,-0.45255 0.18856,-0.22627 z"
     id="path37" />
  <path
     style="fill:#325490;fill-opacity:1;fill-rule:evenodd;stroke:none"
     clip-path="url(#clipEmfPath1)"
     d="m 190.67161,433.83824 v -0.67881 -0.67882 l 30.65981,-0.0377 v 0.67882 0.67881 z"
     id="path38" />
  <path
     style="fill:#325490;fill-opacity:1;fill-rule:evenodd;stroke:none"
     clip-path="url(#clipEmfPath1)"
     d="m 221.78396,432.63146 -0.45254,0.49026 v -0.67882 h 0.26398 z"
     id="path39" />
  <path
     style="fill:#325490;fill-opacity:1;fill-rule:evenodd;stroke:none"
     clip-path="url(#clipEmfPath1)"
     d="m 220.87888,433.61197 0.45254,-0.49025 0.45254,-0.49026 16.48012,15.27334 -0.45254,0.49025 -0.45254,0.49026 z"
     id="path40" />
  <path
     style="fill:#325490;fill-opacity:1;fill-rule:evenodd;stroke:none"
     clip-path="url(#clipEmfPath1)"
     d="m 237.81154,449.07387 v -0.67882 l 0.45254,-0.49025 1.28221,1.16907 z"
     id="path41" />
  <path
     style="fill:#325490;fill-opacity:1;fill-rule:evenodd;stroke:none"
     clip-path="url(#clipEmfPath1)"
     d="m 237.81154,447.71624 v 0.67881 0.67882 l -61.31963,0.0754 v -0.67881 -0.67882 z"
     id="path42" />
  <path
     style="fill:#325490;fill-opacity:1;fill-rule:evenodd;stroke:none"
     clip-path="url(#clipEmfPath1)"
     d="m 176.00166,448.01794 0.49025,0.45254 v 0.67881 h -1.54619 z"
     id="path43" />
  <path
     style="fill:#325490;fill-opacity:1;fill-rule:evenodd;stroke:none"
     clip-path="url(#clipEmfPath1)"
     d="m 176.98217,448.92302 -0.49026,-0.45254 -0.49025,-0.45254 14.17969,-15.31106 0.49026,0.45255 0.49025,0.45254 z"
     id="path44" />
  <path
     style="fill:#452987;fill-opacity:1;fill-rule:evenodd;stroke:none"
     clip-path="url(#clipEmfPath1)"
     d="M 203.53138,267.11372 71.087021,131.01131 343.21643,131.16215 Z"
     id="path45" />
  <path
     style="fill:#452987;fill-opacity:1;fill-rule:evenodd;stroke:none"
     clip-path="url(#clipEmfPath1)"
     d="m 202.06061,267.00059 1.50848,0.0754 1.50848,0.0754 -11.01189,197.12034 -1.50848,-0.0754 -1.50847,-0.0754 z"
     id="path46" />
</svg>
