<?xml version="1.0" encoding="UTF-8" standalone="no"?>
<svg
   version="1.0"
   width="180mm"
   height="240mm"
   id="svg5"
   xmlns="http://www.w3.org/2000/svg"
   xmlns:svg="http://www.w3.org/2000/svg">
  <defs
     id="defs1" />
  <path
     style="fill:#f9f5ed;stroke:none;stroke-width:0.327144"
     d="m 534.97974,20.758209 c -8.54598,3.517747 -6.76374,18.717256 -12.57366,24.918294 -5.18273,5.53162 -16.70416,2.29396 -23.47253,3.12109 -3.6916,0.45114 -7.7465,2.50446 -7.7465,6.77575 0,10.6829 17.40584,14.24265 19.51911,24.34614 1.38496,6.62146 -3.53379,15.05941 -4.97812,21.467107 -0.78409,3.47858 -0.80114,7.62978 2.73942,9.60439 9.87283,5.5062 19.39709,-13.525237 29.23798,-12.549757 8.77508,0.86982 18.21248,17.159017 27.4589,12.736097 3.54953,-1.69788 3.89584,-5.77804 3.25767,-9.21148 -1.24873,-6.718307 -5.92865,-14.565527 -4.97532,-21.468147 0.98995,-7.16769 10.50542,-12.47728 15.22719,-17.18517 2.80286,-2.79463 5.98804,-6.87685 3.47706,-10.90069 -5.69888,-9.13243 -21.88126,0.1778 -29.45742,-5.94416 -5.66987,-4.58157 -5.95101,-14.786899 -9.01469,-21.042738 -1.59623,-3.259397 -4.85211,-6.250242 -8.69909,-4.666726 m 1.8507,5.729736 c 2.79777,-0.699546 4.54646,7.599585 5.11954,9.319673 2.24581,6.740765 4.22106,15.089455 11.9708,17.320855 5.43358,1.56449 11.74687,0.52343 17.33901,0.70456 1.56442,0.0507 5.41583,-0.0407 5.41583,2.32769 0,2.72958 -3.63436,5.3506 -5.41564,6.98022 -4.70333,4.30291 -11.7333,8.91744 -13.0619,15.61569 -1.27138,6.40974 2.57857,14.18618 4.21174,20.3009 0.39309,1.471767 1.96564,5.760207 -0.21953,6.581527 -2.22965,0.83804 -5.45058,-1.9001 -7.12277,-3.0325 -4.95816,-3.357617 -10.62855,-9.000707 -16.78326,-9.786297 -6.74258,-0.86062 -13.39474,5.74986 -18.52097,9.279117 -1.6666,1.14742 -5.81346,4.78299 -8.04865,3.37434 -1.93277,-1.21807 -0.2888,-5.39392 0.16386,-6.992977 1.69344,-5.98222 5.36521,-13.4028 4.19175,-19.7241 -1.24547,-6.70925 -8.39817,-11.26797 -13.07698,-15.55729 -1.79242,-1.64322 -5.41566,-4.28646 -5.41566,-7.03192 0,-3.34719 8.02523,-2.36772 10.02925,-2.36892 8.1307,-0.005 16.38162,0.71389 20.82203,-7.57577 2.49626,-4.66015 3.63836,-10.069427 5.43862,-15.019153 0.50753,-1.39543 1.25858,-4.289483 2.96293,-4.715645 m 86.27179,36.055608 c -6.4903,2.907 -5.27804,14.29984 -9.7822,19.20885 -4.3468,4.7375 -12.62696,2.2018 -18.27851,3.08348 -2.9495,0.46014 -6.21949,2.16625 -6.05932,5.62164 0.39409,8.50189 13.2505,11.428817 14.98238,19.640247 1.29527,6.14133 -9.00732,19.95512 -1.61182,24.05552 7.6815,4.25897 15.46931,-10.3546 23.33338,-9.56652 7.0977,0.71129 14.27445,12.98273 21.70901,9.81141 7.97245,-3.40077 -1.59916,-18.19544 -0.90669,-24.06627 0.68698,-5.82426 7.76093,-9.80491 11.40869,-13.751267 2.16483,-2.34204 4.74116,-5.94918 2.51006,-9.10185 -4.73935,-6.697 -16.63124,-0.0553 -22.62679,-4.9551 -4.62016,-3.77576 -5.75469,-23.97697 -14.67819,-19.98014 m 2.00508,4.0224 c 2.85323,6.40163 3.55134,15.4503 9.03846,20.25447 5.57425,4.88045 15.93403,2.95961 22.79666,2.95961 -4.5875,5.71412 -12.90874,10.281927 -15.2927,17.439637 -2.32883,6.99217 2.60764,16.38295 4.29512,23.18499 -6.21058,-3.50674 -13.38422,-11.34747 -20.83754,-11.43795 -7.42625,-0.0901 -14.76823,7.84241 -20.83753,11.43795 2.03369,-6.60543 7.29554,-16.30558 4.74861,-23.2054 -2.64125,-7.15537 -11.02706,-11.662647 -15.7462,-17.419227 6.68464,0 16.69492,1.83452 22.30658,-2.5535 5.91102,-4.62211 6.71057,-14.11466 9.52854,-20.66058 m -56.96222,70.367377 c -5.01727,2.03097 -4.54077,10.15931 -8.0765,13.7225 -3.39871,3.4251 -8.73887,1.90851 -13.0049,2.66273 -2.0909,0.36966 -4.28002,1.50224 -4.28006,3.9259 -9e-5,6.21328 9.00131,8.94802 10.18499,14.97454 0.882,4.49057 -5.63952,14.71731 -0.27537,17.60306 5.65385,3.0416 11.51325,-6.93913 17.42613,-6.30605 5.14563,0.55093 10.37582,8.62436 15.7501,6.47896 5.70396,-2.27699 -0.62374,-13.07278 -0.0754,-17.21103 0.62124,-4.68833 5.43637,-7.41868 8.26086,-10.72815 1.50195,-1.75985 3.06404,-4.34787 1.50291,-6.57171 -3.5116,-5.00231 -12.13595,-0.47584 -16.50614,-4.47887 -3.19666,-2.92807 -4.51416,-16.65952 -10.90663,-14.07188 m 1.39547,6.23908 c 4.472,11.64914 8.23828,15.08504 20.83753,15.08915 -3.44922,3.5757 -8.63782,7.11881 -9.8578,12.20098 -1.08254,4.50964 1.195,9.5987 2.33314,13.91486 -11.22481,-7.09275 -15.45433,-7.48347 -26.62574,0 0.92892,-4.18881 3.08249,-9.01893 2.20421,-13.34794 -1.05828,-5.21621 -6.22978,-9.12249 -9.72887,-12.7679 12.90325,-0.008 15.77905,-3.80396 20.83753,-15.08915 z"
     id="path5" />
  <path
     style="fill:#f9f5ed;stroke:none;stroke-width:0.327144"
     d="m 54.323887,727.81831 c -8.54598,3.51775 -6.76374,18.71725 -12.57366,24.91829 -5.18273,5.53162 -16.70416,2.29396 -23.47253,3.12109 -3.6916,0.45114 -7.7465,2.50446 -7.7465,6.77575 0,10.6829 17.40584,14.24265 19.51911,24.34614 1.38496,6.62146 -3.53379,15.05941 -4.97812,21.46711 -0.78409,3.47858 -0.80114,7.62978 2.73942,9.60439 9.87283,5.5062 19.39709,-13.52524 29.23798,-12.54976 8.77508,0.86982 18.21248,17.15902 27.4589,12.7361 3.549525,-1.69788 3.895835,-5.77804 3.257665,-9.21148 -1.24873,-6.71831 -5.928645,-14.56553 -4.975315,-21.46815 0.98995,-7.16769 10.505415,-12.47728 15.227185,-17.18517 2.802858,-2.79463 5.988038,-6.87685 3.477058,-10.90069 -5.698878,-9.13243 -21.881253,0.1778 -29.457413,-5.94416 -5.66987,-4.58157 -5.95101,-14.7869 -9.01469,-21.04274 -1.59623,-3.25939 -4.85211,-6.25024 -8.69909,-4.66672 m 1.8507,5.72974 c 2.79777,-0.69955 4.54646,7.59958 5.11954,9.31967 2.24581,6.74076 4.22106,15.08945 11.9708,17.32085 5.43358,1.56449 11.74687,0.52343 17.339005,0.70456 1.56442,0.0507 5.41583,-0.0407 5.41583,2.32769 0,2.72958 -3.63436,5.3506 -5.41564,6.98022 -4.70333,4.30291 -11.733295,8.91744 -13.061895,15.61569 -1.27138,6.40974 2.57857,14.18618 4.21174,20.3009 0.39309,1.47177 1.96564,5.76021 -0.21953,6.58153 -2.22965,0.83804 -5.45058,-1.9001 -7.12277,-3.0325 -4.95816,-3.35762 -10.62855,-9.00071 -16.78326,-9.7863 -6.74258,-0.86062 -13.39474,5.74986 -18.52097,9.27912 -1.6666,1.14742 -5.81346,4.78299 -8.04865,3.37434 -1.93277,-1.21807 -0.2888,-5.39392 0.16386,-6.99298 1.69344,-5.98222 5.36521,-13.4028 4.19175,-19.7241 -1.24547,-6.70925 -8.39817,-11.26797 -13.07698,-15.55729 -1.79242,-1.64322 -5.41566,-4.28646 -5.41566,-7.03192 0,-3.34719 8.02523,-2.36772 10.02925,-2.36892 8.1307,-0.005 16.38162,0.71389 20.82203,-7.57577 2.49626,-4.66015 3.63836,-10.06942 5.43862,-15.01915 0.50753,-1.39543 1.25858,-4.28948 2.96293,-4.71564 m 86.271783,36.0556 c -6.4903,2.907 -5.27804,14.29984 -9.7822,19.20885 -4.3468,4.7375 -12.62696,2.2018 -18.27851,3.08348 -2.9495,0.46014 -6.21949,2.16625 -6.05932,5.62164 0.39409,8.50189 13.2505,11.42882 14.98238,19.64025 1.29527,6.14133 -9.00732,19.95512 -1.61182,24.05552 7.6815,4.25897 15.46931,-10.3546 23.33338,-9.56652 7.0977,0.71129 14.27445,12.98273 21.70901,9.81141 7.97245,-3.40077 -1.59916,-18.19544 -0.90669,-24.06627 0.68698,-5.82426 7.76093,-9.80491 11.40869,-13.75127 2.16483,-2.34204 4.74116,-5.94918 2.51006,-9.10185 -4.73935,-6.697 -16.63124,-0.0553 -22.62679,-4.9551 -4.62016,-3.77576 -5.75469,-23.97697 -14.67819,-19.98014 m 2.00508,4.0224 c 2.85323,6.40163 3.55134,15.4503 9.03846,20.25447 5.57425,4.88045 15.93403,2.95961 22.79666,2.95961 -4.5875,5.71412 -12.90874,10.28193 -15.2927,17.43964 -2.32883,6.99217 2.60764,16.38295 4.29512,23.18499 -6.21058,-3.50674 -13.38422,-11.34747 -20.83754,-11.43795 -7.42625,-0.0901 -14.76823,7.84241 -20.83753,11.43795 2.03369,-6.60543 7.29554,-16.30558 4.74861,-23.2054 -2.64125,-7.15537 -11.02706,-11.66265 -15.7462,-17.41923 6.68464,0 16.69492,1.83452 22.30658,-2.5535 5.91102,-4.62211 6.71057,-14.11466 9.52854,-20.66058 m -56.962218,70.36738 c -5.017265,2.03097 -4.540765,10.15931 -8.076495,13.7225 -3.39871,3.4251 -8.73887,1.90851 -13.0049,2.66273 -2.0909,0.36966 -4.28002,1.50224 -4.28006,3.9259 -9e-5,6.21328 9.00131,8.94802 10.18499,14.97454 0.882,4.49057 -5.63952,14.71731 -0.27537,17.60306 5.65385,3.0416 11.51325,-6.93913 17.426125,-6.30605 5.14563,0.55093 10.37582,8.62436 15.750098,6.47896 5.70396,-2.27699 -0.62374,-13.07278 -0.0754,-17.21103 0.62124,-4.68833 5.43637,-7.41868 8.26086,-10.72815 1.50195,-1.75985 3.06404,-4.34787 1.50291,-6.57171 -3.5116,-5.00231 -12.13595,-0.47584 -16.506138,-4.47887 -3.19666,-2.92807 -4.51416,-16.65952 -10.90663,-14.07188 m 1.39547,6.23908 c 4.472,11.64914 8.23828,15.08504 20.837528,15.08915 -3.44922,3.5757 -8.63782,7.11881 -9.857798,12.20098 -1.08254,4.50964 1.194998,9.5987 2.333138,13.91486 -11.224808,-7.09275 -15.454328,-7.48347 -26.625733,0 0.92892,-4.18881 3.08249,-9.01893 2.20421,-13.34794 -1.05828,-5.21621 -6.22978,-9.12249 -9.72887,-12.7679 12.90325,-0.008 15.77905,-3.80396 20.837525,-15.08915 z"
     id="path5-7" />
</svg>
